<?xml version="1.0" encoding="UTF-8"?>
<svg id="Layer_2" xmlns="http://www.w3.org/2000/svg" xmlns:xlink="http://www.w3.org/1999/xlink" viewBox="0 0 65.66 87.07">
  <defs>
    <style>
      .cls-1 {
        fill: url(#linear-gradient-2);
      }

      .cls-2 {
        fill: #a3aad2;
      }

      .cls-3 {
        fill: url(#radial-gradient);
      }

      .cls-4 {
        fill: url(#radial-gradient-2);
      }

      .cls-5 {
        fill: url(#linear-gradient);
      }
    </style>
    <radialGradient id="radial-gradient" cx="59.03" cy="56.66" fx="59.03" fy="56.66" r="37.07" gradientUnits="userSpaceOnUse">
      <stop offset="0" stop-color="#28cbe9"/>
      <stop offset="1" stop-color="#0a4fbb"/>
    </radialGradient>
    <linearGradient id="linear-gradient" x1="0" y1="43.53" x2="39.16" y2="43.53" gradientUnits="userSpaceOnUse">
      <stop offset="0" stop-color="#dbe1ff"/>
      <stop offset="1" stop-color="#cbd1e9"/>
    </linearGradient>
    <linearGradient id="linear-gradient-2" x1="19.58" y1="52.66" x2="19.58" y2="61.85" gradientUnits="userSpaceOnUse">
      <stop offset="0" stop-color="#28cbe9"/>
      <stop offset="1" stop-color="#0a4fbb"/>
    </linearGradient>
    <radialGradient id="radial-gradient-2" cx="16.86" cy="75.1" fx="16.86" fy="75.1" r="11.4" gradientUnits="userSpaceOnUse">
      <stop offset="0" stop-color="#54f5ff"/>
      <stop offset=".12" stop-color="#28cbe9"/>
      <stop offset="1" stop-color="#0a4fbb"/>
    </radialGradient>
  </defs>
  <g id="OBJECTS">
    <g>
      <path class="cls-3" d="M64.64,73.41l-3.98-2.29,1.23-.71c.98-.56,1.31-1.81.75-2.79-.56-.97-1.81-1.31-2.79-.75l-3.27,1.89-3.02-1.74c.13-.54.21-1.1.21-1.69s-.08-1.14-.21-1.68l3.02-1.74,3.27,1.89c.32.19.67.28,1.02.28.71,0,1.39-.37,1.77-1.02.56-.98.23-2.22-.75-2.79l-1.23-.71,3.98-2.29c.98-.56,1.31-1.81.75-2.79-.56-.98-1.81-1.31-2.79-.75l-3.97,2.29v-1.42c0-1.13-.91-2.04-2.04-2.04h0c-1.13,0-2.04.91-2.04,2.04v3.78s-3.02,1.75-3.02,1.75c-.82-.78-1.81-1.36-2.92-1.69v-3.48l3.27-1.89c.98-.56,1.31-1.81.75-2.79-.56-.98-1.81-1.31-2.79-.75l-1.23.71v-4.59c0-1.13-.91-2.04-2.04-2.04s-2.04.91-2.04,2.04v4.59l-1.23-.71c-.97-.56-2.22-.23-2.79.75-.56.97-.23,2.22.75,2.79l3.27,1.89v3.48c-1.11.33-2.1.91-2.92,1.69l-3.02-1.75v-3.78c0-1.13-.91-2.04-2.04-2.04s-2.04.91-2.04,2.04v1.42l-3.97-2.29c-.98-.56-2.22-.23-2.79.75-.56.97-.23,2.22.75,2.79l3.97,2.29-1.23.71c-.97.56-1.31,1.81-.75,2.79.38.65,1.06,1.02,1.77,1.02.34,0,.7-.09,1.02-.27l3.27-1.89,3.02,1.74c-.13.54-.21,1.1-.21,1.68s.08,1.14.21,1.69l-3.02,1.74-3.27-1.89c-.98-.57-2.22-.23-2.79.75-.56.97-.23,2.22.75,2.79l1.23.71-3.98,2.29c-.98.56-1.31,1.81-.75,2.79.38.66,1.06,1.02,1.77,1.02.35,0,.7-.09,1.02-.27l3.97-2.3v1.42c0,1.13.91,2.04,2.04,2.04s2.04-.91,2.04-2.04v-3.78s3.02-1.75,3.02-1.75c.82.78,1.81,1.36,2.91,1.69v3.49l-3.27,1.89c-.98.56-1.31,1.81-.75,2.79.56.98,1.81,1.31,2.79.75l1.23-.71v4.59c0,1.13.91,2.04,2.04,2.04s2.04-.91,2.04-2.04v-4.59l1.23.71c.32.19.67.28,1.02.28.71,0,1.39-.37,1.77-1.02.56-.97.23-2.22-.75-2.79l-3.27-1.89v-3.49c1.11-.33,2.1-.91,2.92-1.69l3.02,1.74v3.78c0,1.13.91,2.04,2.04,2.04s2.04-.91,2.04-2.04v-1.42l3.97,2.3c.32.19.67.27,1.02.27.71,0,1.39-.37,1.77-1.02.56-.97.23-2.22-.75-2.79ZM46.56,68.46c-1.72,0-3.12-1.4-3.12-3.12s1.4-3.12,3.12-3.12,3.12,1.4,3.12,3.12-1.4,3.12-3.12,3.12Z"/>
      <g>
        <rect class="cls-5" width="39.16" height="87.07" rx="7.72" ry="7.72"/>
        <path class="cls-2" d="M15.75,68c0,2.11,1.71,3.83,3.83,3.83s3.83-1.71,3.83-3.83V14.83c0-2.12-1.71-3.83-3.83-3.83s-3.83,1.71-3.83,3.83v53.18Z"/>
        <path class="cls-1" d="M15.75,68c0,2.11,1.71,3.83,3.83,3.83s3.83-1.71,3.83-3.83v-9.91c0-2.11-1.71-3.83-3.83-3.83s-3.83,1.71-3.83,3.83v9.91Z"/>
        <path class="cls-4" d="M27.47,70.97c0,4.36-3.53,7.89-7.89,7.89s-7.89-3.53-7.89-7.89,3.53-7.89,7.89-7.89,7.89,3.53,7.89,7.89Z"/>
        <path class="cls-2" d="M32.14,18.3c0,.42-.34.77-.77.77h-3.59c-.42,0-.77-.34-.77-.77h0c0-.42.34-.77.77-.77h3.59c.42,0,.77.34.77.77h0Z"/>
        <path class="cls-2" d="M32.14,29.49c0,.42-.34.77-.77.77h-3.59c-.42,0-.77-.34-.77-.77h0c0-.42.34-.77.77-.77h3.59c.42,0,.77.34.77.77h0Z"/>
        <path class="cls-2" d="M32.14,40.69c0,.42-.34.77-.77.77h-3.59c-.42,0-.77-.34-.77-.77h0c0-.42.34-.77.77-.77h3.59c.42,0,.77.34.77.77h0Z"/>
        <path class="cls-2" d="M32.14,51.88c0,.42-.34.77-.77.77h-3.59c-.42,0-.77-.34-.77-.77h0c0-.42.34-.77.77-.77h3.59c.42,0,.77.34.77.77h0Z"/>
        <path class="cls-2" d="M32.14,63.08c0,.42-.34.77-.77.77h-3.59c-.42,0-.77-.34-.77-.77h0c0-.42.34-.77.77-.77h3.59c.42,0,.77.34.77.77h0Z"/>
      </g>
    </g>
  </g>
</svg>