<?xml version="1.0" encoding="UTF-8"?>
<svg xmlns="http://www.w3.org/2000/svg" xmlns:xlink="http://www.w3.org/1999/xlink" viewBox="0 0 67.35 87.07">
  <defs>
    <style>
      .cls-1 {
        fill: url(#linear-gradient-2);
      }

      .cls-2 {
        fill: url(#radial-gradient-2);
      }

      .cls-2, .cls-3 {
        mix-blend-mode: overlay;
      }

      .cls-4 {
        fill: #a3aad2;
      }

      .cls-5 {
        fill: url(#radial-gradient);
      }

      .cls-6 {
        fill: url(#radial-gradient-3);
      }

      .cls-7 {
        fill: url(#linear-gradient-3);
      }

      .cls-8 {
        isolation: isolate;
      }

      .cls-3 {
        fill: url(#Degradado_sin_nombre_34);
        opacity: .4;
      }

      .cls-9 {
        fill: url(#linear-gradient);
      }
    </style>
    <linearGradient id="linear-gradient" x1="65.41" y1="42.95" x2="26.79" y2="86.1" gradientUnits="userSpaceOnUse">
      <stop offset="0" stop-color="#ffba24"/>
      <stop offset="1" stop-color="#f50"/>
    </linearGradient>
    <radialGradient id="radial-gradient" cx="128.44" cy="55.13" fx="128.44" fy="55.13" r="30.89" gradientTransform="translate(177.54) rotate(-180) scale(1 -1)" gradientUnits="userSpaceOnUse">
      <stop offset="0" stop-color="#fff4c3"/>
      <stop offset=".16" stop-color="#ffe036"/>
      <stop offset="1" stop-color="#fa761c"/>
    </radialGradient>
    <radialGradient id="radial-gradient-2" cx="1258.1" cy="-1745.46" fx="1258.1" fy="-1745.46" r="4.64" gradientTransform="translate(-1717.65 -3684.13) rotate(126.03) scale(1.43 2.08) skewX(-4.38)" gradientUnits="userSpaceOnUse">
      <stop offset="0" stop-color="#fff"/>
      <stop offset=".1" stop-color="#fff" stop-opacity=".85"/>
      <stop offset=".29" stop-color="#fff" stop-opacity=".59"/>
      <stop offset=".47" stop-color="#fff" stop-opacity=".38"/>
      <stop offset=".63" stop-color="#fff" stop-opacity=".22"/>
      <stop offset=".78" stop-color="#fff" stop-opacity=".1"/>
      <stop offset=".91" stop-color="#fff" stop-opacity=".03"/>
      <stop offset="1" stop-color="#fff" stop-opacity="0"/>
    </radialGradient>
    <radialGradient id="Degradado_sin_nombre_34" data-name="Degradado sin nombre 34" cx="-2765.69" cy="2917.52" fx="-2765.69" fy="2917.52" r="4.47" gradientTransform="translate(-3852.02 -845.52) rotate(-136.79) scale(1.61 .68) skewX(11.83)" gradientUnits="userSpaceOnUse">
      <stop offset="0" stop-color="#fff"/>
      <stop offset=".1" stop-color="#fff" stop-opacity=".85"/>
      <stop offset=".29" stop-color="#fff" stop-opacity=".59"/>
      <stop offset=".47" stop-color="#fff" stop-opacity=".38"/>
      <stop offset=".63" stop-color="#fff" stop-opacity=".22"/>
      <stop offset=".78" stop-color="#fff" stop-opacity=".1"/>
      <stop offset=".91" stop-color="#fff" stop-opacity=".03"/>
      <stop offset="1" stop-color="#fff" stop-opacity="0"/>
    </radialGradient>
    <linearGradient id="linear-gradient-2" x1="0" y1="43.53" x2="39.16" y2="43.53" gradientUnits="userSpaceOnUse">
      <stop offset="0" stop-color="#dbe1ff"/>
      <stop offset="1" stop-color="#cbd1e9"/>
    </linearGradient>
    <linearGradient id="linear-gradient-3" x1="19.58" y1="26.72" x2="19.58" y2="50.13" gradientUnits="userSpaceOnUse">
      <stop offset="0" stop-color="#e93c28"/>
      <stop offset="1" stop-color="#bb160a"/>
    </linearGradient>
    <radialGradient id="radial-gradient-3" cx="17.37" cy="75.54" fx="17.37" fy="75.54" r="12.28" gradientUnits="userSpaceOnUse">
      <stop offset="0" stop-color="#ff909a"/>
      <stop offset=".2" stop-color="#e93c28"/>
      <stop offset="1" stop-color="#bb160a"/>
    </radialGradient>
  </defs>
  <g class="cls-8">
    <g id="Layer_2">
      <g id="OBJECTS">
        <g>
          <g>
            <polygon class="cls-9" points="62.57 79.03 57.75 79.34 56.85 84.08 52.22 82.73 49.74 86.87 45.85 84.02 42.11 87.07 39.43 83.06 34.88 84.64 33.73 79.96 28.91 79.88 29.43 75.09 24.92 73.38 27.06 69.05 23.41 65.89 26.89 62.56 24.54 58.35 28.95 56.4 28.19 51.64 33 51.32 33.91 46.59 38.54 47.94 41.01 43.79 44.9 46.64 48.64 43.6 51.32 47.61 55.87 46.03 57.02 50.71 61.85 50.78 61.32 55.58 65.83 57.29 63.7 61.62 67.35 64.77 63.86 68.11 66.21 72.32 61.8 74.26 62.57 79.03"/>
            <path class="cls-5" d="M29.1,65.33c0,8.99,7.29,16.27,16.27,16.27s16.27-7.29,16.27-16.27-7.29-16.27-16.27-16.27-16.27,7.29-16.27,16.27Z"/>
            <g>
              <path class="cls-2" d="M47.86,63.66c-4.14-3.36-5.76-8.48-3.61-11.44,2.15-2.95,7.25-2.62,11.4.74,4.14,3.36,5.76,8.48,3.61,11.43-2.15,2.96-7.25,2.62-11.4-.74Z"/>
              <path class="cls-3" d="M30.99,68.93c.55-1.8,3.34-1.05,6.24,1.67,2.9,2.72,4.8,6.38,4.25,8.18-.55,1.8-3.34,1.05-6.24-1.67-2.9-2.72-4.8-6.39-4.25-8.18Z"/>
            </g>
          </g>
          <g>
            <rect class="cls-1" width="39.16" height="87.07" rx="7.72" ry="7.72"/>
            <path class="cls-4" d="M15.75,68c0,2.11,1.71,3.83,3.83,3.83s3.83-1.71,3.83-3.83V14.83c0-2.12-1.71-3.83-3.83-3.83s-3.83,1.71-3.83,3.83v53.18Z"/>
            <path class="cls-7" d="M15.75,68c0,2.11,1.71,3.83,3.83,3.83s3.83-1.71,3.83-3.83V29.72c0-2.11-1.71-3.83-3.83-3.83s-3.83,1.71-3.83,3.83v38.28Z"/>
            <path class="cls-6" d="M27.47,70.97c0,4.36-3.53,7.89-7.89,7.89s-7.89-3.53-7.89-7.89,3.53-7.89,7.89-7.89,7.89,3.53,7.89,7.89Z"/>
            <path class="cls-4" d="M32.14,18.3c0,.42-.34.77-.77.77h-3.59c-.42,0-.77-.34-.77-.77h0c0-.42.34-.77.77-.77h3.59c.42,0,.77.34.77.77h0Z"/>
            <path class="cls-4" d="M32.14,29.49c0,.42-.34.77-.77.77h-3.59c-.42,0-.77-.34-.77-.77h0c0-.42.34-.77.77-.77h3.59c.42,0,.77.34.77.77h0Z"/>
            <path class="cls-4" d="M32.14,40.69c0,.42-.34.77-.77.77h-3.59c-.42,0-.77-.34-.77-.77h0c0-.42.34-.77.77-.77h3.59c.42,0,.77.34.77.77h0Z"/>
            <path class="cls-4" d="M32.14,51.88c0,.42-.34.77-.77.77h-3.59c-.42,0-.77-.34-.77-.77h0c0-.42.34-.77.77-.77h3.59c.42,0,.77.34.77.77h0Z"/>
            <path class="cls-4" d="M32.14,63.08c0,.42-.34.77-.77.77h-3.59c-.42,0-.77-.34-.77-.77h0c0-.42.34-.77.77-.77h3.59c.42,0,.77.34.77.77h0Z"/>
          </g>
        </g>
      </g>
    </g>
  </g>
</svg>