<?xml version="1.0" encoding="UTF-8"?>
<svg xmlns="http://www.w3.org/2000/svg" xmlns:xlink="http://www.w3.org/1999/xlink" viewBox="0 0 76.53 75.71">
  <defs>
    <style>
      .cls-1 {
        fill: url(#radial-gradient-2);
      }

      .cls-1, .cls-2 {
        mix-blend-mode: overlay;
      }

      .cls-3 {
        fill: url(#radial-gradient);
      }

      .cls-4 {
        isolation: isolate;
      }

      .cls-2 {
        fill: url(#Degradado_sin_nombre_34);
        opacity: .4;
      }

      .cls-5 {
        fill: url(#linear-gradient);
      }
    </style>
    <linearGradient id="linear-gradient" x1="73.16" y1="-1.14" x2="5.9" y2="74.02" gradientUnits="userSpaceOnUse">
      <stop offset="0" stop-color="#ffba24"/>
      <stop offset="1" stop-color="#f50"/>
    </linearGradient>
    <radialGradient id="radial-gradient" cx="810.95" cy="20.08" fx="810.95" fy="20.08" r="53.81" gradientTransform="translate(855.7) rotate(-180) scale(1 -1)" gradientUnits="userSpaceOnUse">
      <stop offset="0" stop-color="#fff4c3"/>
      <stop offset=".16" stop-color="#ffe036"/>
      <stop offset="1" stop-color="#fa761c"/>
    </radialGradient>
    <radialGradient id="radial-gradient-2" cx="1675.23" cy="-1473.88" fx="1675.23" fy="-1473.88" r="8.08" gradientTransform="translate(-930.4 -3841.53) rotate(126.03) scale(1.43 2.08) skewX(-4.38)" gradientUnits="userSpaceOnUse">
      <stop offset="0" stop-color="#fff"/>
      <stop offset=".1" stop-color="#fff" stop-opacity=".85"/>
      <stop offset=".29" stop-color="#fff" stop-opacity=".59"/>
      <stop offset=".47" stop-color="#fff" stop-opacity=".38"/>
      <stop offset=".63" stop-color="#fff" stop-opacity=".22"/>
      <stop offset=".78" stop-color="#fff" stop-opacity=".1"/>
      <stop offset=".91" stop-color="#fff" stop-opacity=".03"/>
      <stop offset="1" stop-color="#fff" stop-opacity="0"/>
    </radialGradient>
    <radialGradient id="Degradado_sin_nombre_34" data-name="Degradado sin nombre 34" cx="-2167.7" cy="2795.14" fx="-2167.7" fy="2795.14" r="7.79" gradientTransform="translate(-3138.07 -297.59) rotate(-136.79) scale(1.61 .68) skewX(11.83)" gradientUnits="userSpaceOnUse">
      <stop offset="0" stop-color="#fff"/>
      <stop offset=".1" stop-color="#fff" stop-opacity=".85"/>
      <stop offset=".29" stop-color="#fff" stop-opacity=".59"/>
      <stop offset=".47" stop-color="#fff" stop-opacity=".38"/>
      <stop offset=".63" stop-color="#fff" stop-opacity=".22"/>
      <stop offset=".78" stop-color="#fff" stop-opacity=".1"/>
      <stop offset=".91" stop-color="#fff" stop-opacity=".03"/>
      <stop offset="1" stop-color="#fff" stop-opacity="0"/>
    </radialGradient>
  </defs>
  <g class="cls-4">
    <g id="Layer_2">
      <g id="OBJECTS">
        <g>
          <polygon class="cls-5" points="68.21 61.71 59.83 62.26 58.25 70.51 50.18 68.16 45.87 75.37 39.1 70.4 32.58 75.71 27.91 68.73 19.98 71.48 17.98 63.32 9.58 63.2 10.49 54.85 2.64 51.86 6.36 44.32 0 38.83 6.07 33.02 1.97 25.68 9.66 22.3 8.32 14.01 16.71 13.46 18.29 5.2 26.35 7.55 30.66 .34 37.44 5.3 43.95 0 48.62 6.98 56.55 4.22 58.55 12.39 66.95 12.51 66.04 20.86 73.89 23.85 70.18 31.38 76.53 36.88 70.47 42.69 74.56 50.03 66.87 53.41 68.21 61.71"/>
          <path class="cls-3" d="M9.92,37.85c0,15.65,12.69,28.35,28.34,28.35s28.34-12.69,28.34-28.35-12.69-28.34-28.34-28.34-28.34,12.69-28.34,28.34Z"/>
          <g>
            <path class="cls-1" d="M42.59,34.94c-7.22-5.86-10.04-14.77-6.3-19.92,3.74-5.15,12.63-4.57,19.85,1.29,7.22,5.86,10.03,14.78,6.29,19.92-3.75,5.15-12.63,4.57-19.85-1.28Z"/>
            <path class="cls-2" d="M13.21,44.12c.96-3.13,5.82-1.84,10.86,2.9,5.04,4.74,8.36,11.12,7.4,14.26-.95,3.13-5.82,1.84-10.86-2.9-5.04-4.74-8.36-11.12-7.4-14.26Z"/>
          </g>
        </g>
      </g>
    </g>
  </g>
</svg>