<?xml version="1.0" encoding="UTF-8"?>
<svg id="Layer_2" xmlns="http://www.w3.org/2000/svg" xmlns:xlink="http://www.w3.org/1999/xlink" viewBox="0 0 339.75 190.59">
  <defs>
    <style>
      .cls-1 {
        fill: #50c6dc;
      }

      .cls-2 {
        fill: url(#linear-gradient-2);
      }

      .cls-3 {
        fill: none;
      }

      .cls-4 {
        fill: url(#linear-gradient-3);
      }

      .cls-5 {
        fill: #2cb0c0;
      }

      .cls-6 {
        fill: #00939c;
      }

      .cls-7 {
        fill: #007a81;
      }

      .cls-8 {
        fill: url(#linear-gradient);
      }

      .cls-9 {
        clip-path: url(#clippath);
      }
    </style>
    <clipPath id="clippath">
      <rect class="cls-3" width="339.75" height="190.59"/>
    </clipPath>
    <linearGradient id="linear-gradient" x1="169.87" y1="216.59" x2="169.87" y2="-8.09" gradientUnits="userSpaceOnUse">
      <stop offset="0" stop-color="#fffafc"/>
      <stop offset="1" stop-color="#6dcff6"/>
    </linearGradient>
    <linearGradient id="linear-gradient-2" x1="235.97" y1="71.29" x2="235.97" y2="194.73" gradientUnits="userSpaceOnUse">
      <stop offset="0" stop-color="#fffafc"/>
      <stop offset=".99" stop-color="#00baf1"/>
    </linearGradient>
    <linearGradient id="linear-gradient-3" x1="150.35" y1="59.65" x2="150.35" y2="203.42" xlink:href="#linear-gradient"/>
  </defs>
  <g id="OBJECTS">
    <g class="cls-9">
      <g>
        <rect class="cls-8" width="339.75" height="190.59"/>
        <path class="cls-2" d="M339.75,110.84c-38.19-20.62-80.51-43.1-83.77-43.28-6.04-.33-123.79,51.45-123.79,51.45v41.24l207.56-12.12v-37.28Z"/>
        <path class="cls-4" d="M0,163.25l300.69-17.56S136.69,55.69,129.6,55.29c-5.6-.31-93.1,37.59-129.6,53.51v54.44Z"/>
        <path class="cls-1" d="M305.55,115.34c-.03-.47-.38-.84-.82-.94l-.2-2.72-.3-4.03-.08-1.16c-.02-.32-.25-.6-.56-.68l-9.77-3.1c-.68-.19-1.25-.64-1.58-1.26l-2.6-4.86c-.21-.39-.63-.62-1.07-.59l-9.62.71c-.62.05-1.08.58-1.03,1.2l.76,10.34-1.16.09-.91-12.35c-.03-.41-.39-.72-.8-.69-.41.03-.72.39-.69.8l.42,5.67-8.27,7.32-15.33,1.12.09,1.27.64-.05.19,2.65.19,2.55.12,1.58c-.36.19-.6.58-.57,1.02l.04.53,3.73-.27,1.08-.08c-.06.45-.07.92-.04,1.39.28,3.81,3.59,6.67,7.4,6.39s6.67-3.59,6.39-7.4c-.03-.47-.12-.93-.24-1.37l1.08-.08,12.67-.93c-.06.45-.07.92-.04,1.39.28,3.81,3.59,6.67,7.4,6.39s6.67-3.59,6.39-7.4c-.03-.47-.12-.93-.24-1.37l7.35-.54-.04-.53ZM275.69,103.63l.35,4.81-6.31.46,5.95-5.27Z"/>
        <path class="cls-5" d="M0,149.19v41.4h339.75v-69.4C242.59,126.08,62.6,142.69,0,149.19Z"/>
        <path class="cls-5" d="M341.98,116.63v-3.75c3.34-.17,6.64-.33,9.89-.48l-.04-.75c-3.24.15-6.53.31-9.86.48v-3.41c0-1.93-3.16-1.69-3.16,0v3.58c-6.62.35-13.41.73-20.33,1.15v-3.06c0-1.93-3.16-1.69-3.16,0v3.25c-6.66.41-13.45.84-20.33,1.3v-2.89c0-1.93-3.16-1.69-3.16,0v3.1c-6.7.45-13.49.93-20.33,1.43v-2.86c0-1.93-3.16-1.69-3.16,0v3.09c-6.73.49-13.52,1.01-20.33,1.53v-2.96c0-1.93-3.16-1.69-3.16,0v3.21c-6.76.53-13.55,1.07-20.33,1.62v-3.16c0-1.93-3.16-1.69-3.16,0v3.42c-6.79.56-13.57,1.12-20.33,1.7v-3.45c0-1.93-3.16-1.69-3.16,0v3.72c-6.82.58-13.6,1.17-20.33,1.76v-2.82c0-1.93-3.16-1.69-3.16,0v3.1c-6.85.61-13.63,1.21-20.33,1.82v-3.26c0-1.93-3.16-1.69-3.16,0v3.54c-6.88.63-13.67,1.26-20.33,1.88v-3.26c0-1.93-3.16-1.69-3.16,0v3.55c-6.93.65-13.72,1.29-20.33,1.93v-2.81c0-1.93-3.16-1.69-3.16,0v3.12c-7,.67-13.78,1.33-20.33,1.98v-2.43c0-1.93-3.16-1.69-3.16,0v2.74c-7.09.7-13.89,1.37-20.33,2.02v-2.09c0-1.93-3.16-1.69-3.16,0v2.41c-7.28.73-14.08,1.42-20.33,2.07v-1.81c0-1.93-3.16-1.69-3.16,0v2.13c-7.75.8-14.58,1.51-20.33,2.11v-1.58c0-1.93-3.16-1.69-3.16,0v1.91c-10.77,1.14-17.02,1.82-17.38,1.86l.08.75c.36-.04,6.58-.72,17.3-1.85v3.75c-10.77,1.14-17.02,1.82-17.38,1.86l.08.75c.36-.04,6.58-.72,17.3-1.85v5.14h3.16v-5.47c5.75-.6,12.58-1.32,20.33-2.11v4.92h3.16v-5.24c6.25-.64,13.06-1.33,20.33-2.07v4.64h3.16v-4.96c6.44-.65,13.24-1.32,20.33-2.02v4.32h3.16v-4.63c6.55-.64,13.34-1.3,20.33-1.98v3.94h3.16v-4.24c6.62-.63,13.4-1.28,20.33-1.93v3.5h3.16v-3.8c6.66-.62,13.45-1.25,20.33-1.88v3.51h3.16v-3.8c6.7-.61,13.49-1.22,20.33-1.82v3.96h3.16v-4.23c6.73-.59,13.52-1.18,20.33-1.76v3.33h3.16v-3.6c6.76-.57,13.55-1.14,20.33-1.7v3.63h3.16v-3.89c6.79-.55,13.57-1.09,20.33-1.62v3.85h3.16v-4.09c6.82-.53,13.6-1.04,20.33-1.53v3.96h3.16v-4.19c6.85-.5,13.63-.98,20.33-1.43v3.96h3.16v-4.17c6.88-.46,13.67-.9,20.33-1.31v3.81h3.16v-4c6.93-.42,13.72-.8,20.33-1.15v3.48h3.16v-3.64c3.34-.17,6.64-.33,9.89-.48l-.04-.75c-3.24.15-6.53.31-9.86.48ZM33.36,142.51c-7.75.8-14.58,1.51-20.33,2.11v-3.75c5.75-.6,12.58-1.32,20.33-2.11v3.75ZM56.86,140.12c-7.28.73-14.08,1.42-20.33,2.07v-3.75c6.25-.64,13.06-1.33,20.33-2.07v3.75ZM60.02,139.8v-3.75c6.44-.65,13.24-1.32,20.33-2.02v3.75c-7.09.7-13.89,1.37-20.33,2.02ZM103.85,135.5c-7,.67-13.78,1.33-20.33,1.98v-3.75c6.55-.64,13.34-1.3,20.33-1.98v3.75ZM127.35,133.26c-6.93.65-13.72,1.29-20.33,1.93v-3.75c6.62-.63,13.4-1.28,20.33-1.93v3.75ZM150.84,131.09c-6.88.63-13.67,1.26-20.33,1.88v-3.75c6.66-.62,13.45-1.25,20.33-1.88v3.75ZM174.34,128.98c-6.85.61-13.63,1.21-20.33,1.82v-3.75c6.7-.61,13.49-1.22,20.33-1.82v3.75ZM197.84,126.93c-6.82.58-13.6,1.17-20.33,1.76v-3.75c6.73-.59,13.52-1.18,20.33-1.76v3.75ZM221.34,124.97c-6.79.56-13.57,1.12-20.33,1.7v-3.75c6.76-.57,13.55-1.14,20.33-1.7v3.75ZM244.83,123.09c-6.76.53-13.55,1.07-20.33,1.62v-3.75c6.79-.55,13.57-1.09,20.33-1.62v3.75ZM268.33,121.31c-6.73.49-13.52,1.01-20.33,1.53v-3.75c6.82-.53,13.6-1.04,20.33-1.53v3.75ZM291.83,119.64c-6.7.45-13.49.93-20.33,1.43v-3.75c6.85-.5,13.63-.98,20.33-1.43v3.75ZM315.32,118.13c-6.66.41-13.45.84-20.33,1.3v-3.75c6.88-.46,13.67-.9,20.33-1.31v3.75ZM338.82,116.79c-6.62.35-13.41.73-20.33,1.15v-3.75c6.93-.42,13.72-.8,20.33-1.15v3.75Z"/>
        <path class="cls-6" d="M339.75,190.59v-62.73c-125.23,5.99-262.56,61.33-262.56,61.33v1.4h262.56Z"/>
        <path class="cls-7" d="M0,162.87v27.72h182.1C120.25,162.89,30.03,162.23,0,162.87Z"/>
        <path class="cls-7" d="M98.65,155.86s-5,6.01-6.69,14.89h.72s.12-5.93,5.97-14.89Z"/>
        <g>
          <path class="cls-7" d="M90.23,166.29s-.15-2.51,1.59-3.51c1.75-.99,2.11-1.59,2.11-1.59,0,0,.22,1.83-.78,3.25-1,1.42-2.92,1.85-2.92,1.85Z"/>
          <path class="cls-7" d="M91.22,163.26c-.66.8-.84,1.98-.84,2.36,0,.38.2.07.59-.69s.51-1.03,1.14-1.45c.63-.42,1.02-.99,1.02-.99,0,0-.14.46-.91,1.03-.78.57-1.63,2.49-1.1,2.26.53-.23,1.75-.98,2.27-1.71-.07.13-.14.25-.23.37-1,1.42-2.92,1.85-2.92,1.85,0,0-.11-1.88.99-3.03Z"/>
          <path class="cls-7" d="M93.52,161.97c-.31.29-.8.67-.74.49.06-.19-1.2.46-1.64.88-.02.02-.03.03-.05.04.19-.23.43-.44.72-.6,1.75-.99,2.11-1.59,2.11-1.59,0,0,.16,1.39-.46,2.69,0-.02.37-1.27.21-1.08-.16.19-.24.16-.04-.46.21-.61.19-.66-.12-.37Z"/>
        </g>
        <g>
          <path class="cls-7" d="M95.3,165.2s1.65-1.91,3.59-1.39c1.94.51,2.62.33,2.62.33,0,0-1.12,1.46-2.83,1.78-1.71.32-3.38-.72-3.38-.72Z"/>
          <path class="cls-7" d="M98.12,163.72c-1.04.11-1.98.83-2.25,1.1-.26.27.09.19.9-.08.81-.27,1.08-.38,1.83-.24.74.14,1.42,0,1.42,0,0,0-.42.23-1.37.1-.95-.14-2.91.64-2.37.85.54.21,1.94.52,2.82.36-.14.04-.28.08-.43.11-1.71.32-3.38-.72-3.38-.72,0,0,1.23-1.42,2.82-1.48Z"/>
          <path class="cls-7" d="M100.67,164.42c-.42-.01-1.04-.08-.87-.17.18-.09-1.19-.51-1.79-.51-.02,0-.04,0-.06,0,.3-.03.61-.01.94.07,1.94.51,2.62.33,2.62.33,0,0-.85,1.11-2.21,1.6.02,0,1.15-.66.91-.63-.25.03-.28-.06.29-.35.58-.29.59-.34.17-.35Z"/>
        </g>
        <g>
          <path class="cls-7" d="M90.12,164.73s.58-2.45-.97-3.73c-1.55-1.28-1.8-1.93-1.8-1.93,0,0-.53,1.76.21,3.34.74,1.57,2.56,2.32,2.56,2.32Z"/>
          <path class="cls-7" d="M89.67,161.58c.52.91.49,2.09.42,2.46-.07.37-.21.04-.46-.78-.25-.81-.32-1.1-.87-1.62-.55-.52-.84-1.15-.84-1.15,0,0,.06.48.72,1.17.67.69,1.18,2.73.7,2.41-.48-.32-1.55-1.27-1.94-2.08.05.14.1.27.16.41.74,1.57,2.56,2.32,2.56,2.32,0,0,.44-1.83-.45-3.15Z"/>
          <path class="cls-7" d="M87.61,159.92c.25.34.67.8.64.61-.03-.2,1.11.66,1.46,1.15.01.02.03.04.04.05-.15-.26-.35-.5-.61-.72-1.55-1.28-1.8-1.93-1.8-1.93,0,0-.4,1.34-.01,2.73,0-.02-.14-1.32-.02-1.1.12.22.21.2.11-.44-.1-.64-.07-.68.18-.34Z"/>
        </g>
        <path class="cls-7" d="M89.91,169.59s-.26-7.78,2.73-13.34c0,0-2.16,5.11-2.27,13.34h-.47Z"/>
        <g>
          <path class="cls-7" d="M92.64,155.29s-.35-1.31.24-1.89c.59-.58.92-.73,1.3-1.06.37-.33.67-.61.67-.61,0,0-.06.52.07.97.13.46.11,1.21.05,1.29-.07.09.24.46-.11,1.09-.35.63-2,1.23-2,1.23l-.22-1.03Z"/>
          <path class="cls-7" d="M92.87,156.3s-.45-1.99-.88-2.39c-.43-.4-1.5-.56-1.76-.75-.26-.18-.6-.52-.6-.52,0,0-.26.78-.2,1.13.06.35.03,1.02.56,1.78.53.76,2.88.75,2.88.75Z"/>
          <path class="cls-7" d="M92.86,156.3s1.19-.54,1.78-.68c.59-.14,1.37.63,1.64.84.27.21,1.19.54,1.19.54,0,0-1.07.45-1.3.7-.23.25-.61.46-1.68.22-1.07-.24-1.63-1.62-1.63-1.62Z"/>
          <path class="cls-7" d="M92.85,156.31s-1.66-.18-2.26,0c-.6.18-.99,1.02-1.34,1.28-.34.27-.85.53-.85.53,0,0,.88.36,1.34.65.46.28,1.41.25,2-.55.59-.81,1.11-1.9,1.11-1.9Z"/>
          <path class="cls-7" d="M92.85,156.31s-1.33,1.9-.83,2.72,1.17,1.02,1.36,1.34c.19.32.26.5.26.5,0,0,.25-.84.43-1.64s-.22-1.52-1.22-2.92Z"/>
          <path class="cls-7" d="M92.86,156.3s-.23-1.3-.11-1.81c.12-.51.26-.62.21-.28-.05.34-.1.56.05.18s.48-.95.4-.65c-.08.3-.39,1.16-.16.76.23-.39.87-1.61.59-.87-.28.74-.51,1.64-.26,1.2.24-.44.45-.91.32-.5-.13.41-.37,1.02-.15.63.22-.39.41-.46.21-.11-.19.35-.49.79-.25.53.24-.26.65-1.03.54-.71-.1.32-.44.77-.27.63s.58-.54.27-.1-1.39,1.09-1.39,1.09Z"/>
          <path class="cls-7" d="M92.81,156.38s-1.24.02-1.74.05c-.5.03-1.09.35-.78.31.31-.04.96-.26.52.03-.44.29-1.22.67-.77.55.45-.12,1.17-.35.86-.19-.31.16-.9.57-.37.41.53-.16,1.22-.48.94-.3-.28.18-1.19.73-.83.67.36-.06,1.02-.55.75-.31-.27.24-.58.5-.22.29s.91-.64.65-.34c-.26.31-.74.91-.18.35.57-.56,1.16-1.51,1.16-1.51Z"/>
          <path class="cls-7" d="M92.81,156.38s-.32-1.11-.54-1.42c-.22-.31-.63-.85-.43-.44.2.41.2.64-.04.32-.24-.32-.64-.74-.5-.48.14.26.66.95.51.81-.15-.14-1.09-1.03-.94-.79.15.24.89,1.14.78.99-.11-.14-.71-.64-.62-.48s1.11.99.84.91c-.27-.08-1.37-1.03-1.18-.79.19.23.9.79.68.69s-.54-.27-.39-.13c.14.14.68.33.43.29-.25-.04-1.03-.51-.45-.12.58.39,1.86.63,1.86.63Z"/>
          <path class="cls-7" d="M92.81,156.38s1.09-.42,1.45-.43c.37-.02.65-.07.3.07-.35.14-.57.19-.29.22.28.03,1.12-.1.85,0-.28.1-.95.2-.69.26.26.05,1.46,0,1.03.11-.43.11-1.31-.02-1.03.14.28.16,1.26.3.76.3-.5,0-1.3-.2-.98-.02.33.19.57.4.28.28-.29-.12-.68-.29-.39-.05.29.24.41.34.04.17-.38-.17-1.33-1.05-1.33-1.05Z"/>
          <path class="cls-7" d="M92.81,156.38s-.48,1.01-.53,1.64c-.05.63,0,.54.08.23.07-.31.17-.71.19-.25.02.46.14,1.01.14.58,0-.42-.02-1.13.05-.74.07.4.28.73.21.32-.08-.42-.04-.86.09-.51.13.35.16,1.23.19.75s-.09-1.07.09-.72c.18.35.38.39.11-.14-.28-.53-.35-.87-.61-1.17Z"/>
          <g>
            <path class="cls-7" d="M91.26,156.34c.39.04.74.02.55.11s-.96.47-.54.37c.42-.1,1.04-.32.76-.12-.29.2-.47.4-.19.25.28-.15.47-.25.33-.08-.13.17-1.04,1.01-.6.66.45-.35.77-.7.64-.48s-.24.45,0,.19c.24-.26.31-.39.22-.12.26-.46.43-.83.43-.83,0,0-.98-.11-1.71-.08-.08.04-.07.09.12.11Z"/>
            <path class="cls-7" d="M93.23,156.93s.1.11.16.15c-.15-.23-.33-.49-.54-.78,0,0-.43.76-.61,1.13-.18.37-.18.43,0,.12.18-.31.37-.64.27-.32-.1.32-.09.58.01.3.1-.28.24-.84.24-.57,0,.27.08,1.15.11.77.03-.38.05-.68.1-.48.05.2.19.41.1.09s-.17-.66-.07-.48c.1.19.4.78.32.5-.08-.27-.28-.65-.09-.45Z"/>
            <path class="cls-7" d="M94.22,157.03c.31.05-.47-.18-.7-.33-.23-.15.19.03.54.08.34.05-.09-.08-.27-.18-.18-.1.28-.03.65-.11s-.69-.01-.92-.08c-.23-.07.38-.08.65-.13s-.35-.12-.57-.11c-.22,0-.11-.03.16-.15.27-.12.34-.15.07-.12-.41.16-.8.34-.93.39-.02,0-.03.02-.04.02.01.03.12.28.32.58.06.08.13.15.2.2.32.23.18.1.04-.14-.14-.23.22.09.46.22.24.13-.1-.1-.24-.25s.26.05.56.1Z"/>
            <path class="cls-7" d="M93.84,155.6c.26-.34-.29.2-.42.33-.14.13.06-.17.21-.48.15-.3-.1.15-.31.4-.2.25.14-.36.26-.72.12-.37-.25.33-.36.56-.12.22.02-.18.14-.56.12-.37-.21.36-.35.68-.14.32.12-.57.26-1.05.14-.47-.18.33-.29.58-.11.25,0-.18.02-.51.03-.34-.17.44-.21.69-.03.25-.03.12-.06-.14s-.13-.83-.15-.35c.03.16.05.26.05.26l.22,1.03s.27-.1.62-.26c-.17,0,.1-.13.36-.47Z"/>
            <path class="cls-7" d="M92.27,156.27c.31.02.54.02.59.02,0-.01,0-.03,0-.05-.03-.14-.13-.55-.27-1-.26-.43-.15-.09-.05.16.1.26.14.43-.16.06-.3-.37-.41-.44-.26-.2.15.24.57.77.44.68-.14-.09-1.04-1.03-.91-.78.13.25.57.63.48.57s-.51-.34-.32-.15.58.4.4.36-.86-.38-.61-.19.7.39.56.33-.91-.13-.61-.02c.3.12.99.17.79.2-.02,0-.03,0-.05,0Z"/>
          </g>
          <path class="cls-7" d="M93.09,156.76c-.09-.14.1.07.28.18.18.11-.03-.07-.11-.17-.08-.1.17.05.39.1.23.05-.39-.18-.5-.28-.11-.1.23.05.4.09s-.17-.15-.29-.2c-.12-.05-.06-.04.13-.04.18,0,.23,0,.07-.05-.09,0-.18,0-.27,0-.02-.03.14-.05.34-.16.23-.13-.21.04-.32.08-.11.04.08-.08.23-.22.16-.13-.1.06-.27.15s.17-.17.33-.34c.16-.18-.22.13-.34.22-.12.1.06-.1.22-.28s-.21.15-.36.3c-.16.15.21-.29.4-.52.19-.23-.19.14-.31.26-.12.11.04-.1.14-.28.1-.18-.21.2-.29.33-.08.13-.05.06,0-.09s.13-.5,0-.23c-.02.09-.03.16-.03.16l-.07.36c.02-.11.04-.25.06-.4-.04-.3-.06-.09-.07.08s-.03.28-.11,0c-.08-.28-.12-.35-.1-.18.03.17.13.58.08.49-.06-.08-.33-.84-.32-.66.01.17.17.5.13.44-.04-.06-.2-.32-.14-.16.06.15.23.37.14.3-.09-.07-.39-.43-.29-.26.1.17.3.39.23.32-.06-.07-.48-.3-.34-.16.14.14.52.34.39.31h0c-.19-.1-.44-.22-.66-.31-.06,0-.06.03.04.09.21.12.41.2.28.2-.13,0-.65.03-.4.07.26.05.66.08.45.12-.21.04-.36.11-.17.09.19-.02.32-.02.21.04-.12.06-.84.31-.5.22.34-.08.6-.2.48-.11-.13.09-.25.19-.05.11.17-.07.25-.13.19-.05-.08.06-.16.12-.21.17-.19.16-.21.2-.03.07.18-.13.36-.27.23-.11-.13.15-.19.3-.07.17.12-.13.34-.41.27-.26-.07.15-.24.67-.13.46.11-.21.2-.37.18-.24-.02.13,0,.28.04.08.03-.2.07-.41.08-.29,0,.13.03.54.06.36.02-.16,0-.38.05-.31.02.06.04.11.06.16.12.21.08.1.06-.07-.02-.17.1.11.2.24s-.03-.08-.07-.2c-.04-.12.13.09.29.19.16.1-.22-.22-.31-.36ZM92.81,156.38s-.04-.02-.11-.06c.06.03.1.05.12.05h0s0,.01,0,.01c0,0,0,.02,0,.05,0-.02,0-.03-.01-.05Z"/>
          <path class="cls-7" d="M94.99,154.77c.12-.44-.08-.7-.02-.77.07-.09.08-.84-.05-1.29-.13-.46-.07-.97-.07-.97,0,0-.3.28-.67.61-.36.32-.68.47-1.22.99.02-.01,1.17-.71,1.4-.88.23-.17.24-.14.25.05s.02.91.1.81.1.63.12.83.2.26.17.63Z"/>
          <path class="cls-7" d="M96.28,156.46c-.18-.14-.61-.55-1.05-.75,0,0,.35.41.63.64.29.24.64.32.42.32-.22,0,.67.33.56.36-.1.02-.96.41-.72.39.24-.01.14.07-.24.28-.39.21-1.02.28-1.02.29.79.11,1.11-.07,1.3-.29.23-.25,1.3-.7,1.3-.7,0,0-.92-.33-1.19-.54Z"/>
          <path class="cls-7" d="M90.32,158.76c-.26-.05-1.02-.42-.81-.42.21,0-.54-.28-.54-.28,0,0,.4-.22.29-.22-.11,0,.26-.21.44-.53.18-.31.69-.9.7-.91-.49.28-.83.96-1.14,1.2-.34.27-.85.53-.85.53,0,0,.88.36,1.34.65.34.21.95.24,1.48-.08-.02,0-.65.11-.91.06Z"/>
          <path class="cls-7" d="M93.38,160.37c.19.32.26.5.26.5,0,0,.25-.84.43-1.64.05-.2.06-.4.03-.6-.08.44-.41,1.29-.48,1.19-.09-.11-.04.46-.04.46,0,0-.26-.28-.35-.43s-.07.03-.25-.16-.47-.45-.47-.26c0,.18-.6-.91-.6-.92-.01.2.02.39.11.54.5.83,1.17,1.02,1.36,1.34Z"/>
          <path class="cls-7" d="M90.97,153.55c.24.09.65.17.77.19-.5-.28-1.3-.42-1.52-.57-.26-.18-.6-.52-.6-.52,0,0-.26.78-.2,1.13.05.32.03.91.44,1.59-.02-.04-.08-.19-.05-.45.04-.3.1-.69-.01-.52-.12.17.05-.13-.01-.56-.06-.42,0-.72.13-.6s.83.48.72.37c-.1-.11.03-.16.31-.05Z"/>
          <path class="cls-7" d="M92.98,156.51c-.07.09-.2.11-.29.04s-.11-.2-.04-.29c.07-.09.2-.11.29-.04.09.07.11.2.04.29Z"/>
        </g>
        <g>
          <g>
            <path class="cls-7" d="M100.1,154.19l.65-.32s-.33.5-.21,1.65c.12,1.15-1.27,2.44-2.55,1.39l2.11-2.72Z"/>
            <path class="cls-7" d="M100.54,155.72c0-.07,0-.14,0-.2-.12-1.15.21-1.65.21-1.65l-.65.32-.06.08v.03s.41-.14.38,0c-.03.15,0,1.01.13,1.41Z"/>
            <path class="cls-7" d="M100.39,154.04l-.29.14-2.07,2.66-.02.07c.49.4,1,.45,1.43.3-.2.03.22-.2.37-.36.15-.16-.09,0-.29.15-.2.15-.31.15-.23.08.09-.06.46-.39.56-.54.1-.15-.26.23-.48.38-.22.15.1-.15.25-.35.15-.2-.31.29-.48.37-.17.08.16-.16.5-.64s.38-.99.45-1.3c.06-.25.24-.77.31-.95Z"/>
            <path class="cls-7" d="M99.87,154.23l.27-.75s-.77.4-1.38.47c-.6.07-1.17.51-1.45,1.25-.28.74.16,1.45.87,1.86l1.69-2.82Z"/>
            <path class="cls-7" d="M99.87,154.23l.27-.75s-.77.4-1.38.47c-.07,0-.14.02-.21.04.01,0,.6,0,.85-.05.25-.06.4-.12.38-.03-.02.09-.04.44-.04.44,0,0,.03,0,.07-.01l.06-.11Z"/>
            <g>
              <path class="cls-7" d="M97.43,154.92s-.01.02-.02.03c0,0,0-.02.02-.03Z"/>
              <path class="cls-7" d="M97.39,155c-.03.06-.06.13-.08.19-.2.53-.03,1.05.35,1.46l.34-.21,1.17-1.35.72-.92.09-.27c-.18.09-.86.4-1.06.48-.24.09-.72.37-1.03.77-.31.41-.39.53-.2.08.19-.45.05-.2-.09.03-.14.24-.22.42-.18.18.04-.25.5-.71.4-.69s-.39.43-.45.54c-.05.1-.07-.1.01-.3Z"/>
            </g>
            <path class="cls-7" d="M97.85,156.81c-.68-.65-.09-1.79.84-2.26.93-.46,1.58-.71,1.81-.92,0,0-.5,1.29-.56,1.79-.06.5-1.02,2.4-2.08,1.39Z"/>
            <path class="cls-7" d="M97.93,156.85c-.36-.22-.3-.86-.15-1.2s.13-.14.07.07-.07.57.01.33c.08-.24.46-.93.35-.62-.11.31-.26.9-.19.78.07-.13.53-.78.4-.48-.13.3-.45.96-.31.82s.87-1.18.7-.83c-.17.35-.61.89-.48.79.13-.09.72-.58.56-.35-.17.22-.63.61-.47.55s.71-.54.58-.35c-.14.19-.6.53-.43.45.16-.08.77-.64.65-.47s-.7.61-.52.54c.18-.07.69-.46.51-.24-.18.22-.63.6-1.26.22Z"/>
            <path class="cls-7" d="M97.73,156.77s-.38-.4-.4-.68c-.02-.28.03-.05.07.07.04.12.12.27.08.1-.04-.17,0-.63.04-.42.04.21.14.83.17.68.03-.15.08-.53.11-.28s-.01.6.05.43c.06-.17.4-.71.32-.51-.08.2-.3.65-.22.56s.5-.54.35-.31c-.14.23-.39.56-.28.5.11-.07.61-.63.5-.45s-.43.56-.28.47c.14-.09.52-.4.39-.26-.13.14-.39.32-.3.32.09,0,.35-.1.23-.03-.12.08-.31.12-.18.13s.55-.13.41-.04c-.15.09-.42.1-.27.16.14.06.65-.04.51.05-.14.09-.48.16-.99-.22,0,0-.18-.11-.3-.23Z"/>
            <path class="cls-7" d="M99.94,155.42c.06-.5.56-1.79.56-1.79-.23.21-.88.46-1.81.92-.01,0-.03.02-.04.02.07-.02.82-.2,1.07-.36.27-.17.55-.32.45-.11-.1.21-.28,1.48-.28,1.49.02-.07.04-.13.04-.18Z"/>
          </g>
          <path class="cls-7" d="M97.99,156.91l-.44-.37s.16.22.02.39c-.14.18-.16.39.02.52.18.13.38.04.5-.14.13-.19.38-.1.38-.1l-.49-.31Z"/>
          <path class="cls-7" d="M98.09,157.31c.07-.11.19-.12.27-.12,0,0,0,0,0,0-.28-.09-.34.14-.53.21-.19.07-.33-.18-.28-.29.05-.1.07-.28.07-.28h0s-.02.07-.05.1c-.14.18-.16.39.02.52.18.13.38.04.5-.14Z"/>
        </g>
        <path class="cls-7" d="M100.37,159.75s-4.79,3.44-7.7,9.59l.53.14s1.21-4.3,7.18-9.73Z"/>
        <g>
          <g>
            <path class="cls-7" d="M101.74,158.8l.53-.11s-.33.3-.47,1.16c-.13.86-1.39,1.54-2.12.53l2.05-1.58Z"/>
            <path class="cls-7" d="M101.77,160s.03-.1.03-.15c.13-.86.47-1.16.47-1.16l-.53.11-.06.05v.02s.32-.03.27.08c-.05.1-.18.73-.17,1.05Z"/>
            <path class="cls-7" d="M101.98,158.75l-.24.05-2.01,1.55-.03.04c.28.38.64.52.99.49-.15-.01.2-.11.34-.2.14-.09-.06-.02-.24.06-.18.07-.26.05-.18.02.07-.03.41-.2.51-.29.1-.09-.24.11-.42.18-.19.07.1-.09.25-.21.15-.12-.28.15-.42.18-.14.03.15-.09.49-.37.34-.29.46-.65.57-.86.09-.17.32-.51.41-.64Z"/>
            <path class="cls-7" d="M101.56,158.79l.34-.5s-.64.14-1.09.08-.95.15-1.29.63c-.35.48-.16,1.09.28,1.52l1.77-1.74Z"/>
            <path class="cls-7" d="M101.56,158.79l.34-.5s-.64.14-1.09.08c-.05,0-.11-.01-.16-.01,0,0,.44.12.63.12.2,0,.32-.01.28.05s-.12.31-.12.31c0,0,.02,0,.05,0l.07-.06Z"/>
            <g>
              <path class="cls-7" d="M99.66,158.83s-.01.01-.02.02c0,0,.01-.01.02-.02Z"/>
              <path class="cls-7" d="M99.61,158.88s-.07.08-.1.12c-.25.35-.22.76-.02,1.13l.28-.09,1.11-.76.7-.53.12-.18c-.15.03-.7.13-.87.15-.19.02-.6.13-.9.37-.3.24-.39.31-.16.02.23-.29.07-.14-.07,0-.15.14-.24.27-.16.1.08-.17.5-.42.42-.42-.07,0-.37.24-.43.31-.06.07-.03-.09.07-.21Z"/>
            </g>
            <path class="cls-7" d="M99.61,160.29c-.37-.6.28-1.33,1.04-1.49.77-.16,1.28-.22,1.49-.33,0,0-.61.85-.75,1.2-.14.35-1.2,1.55-1.78.62Z"/>
            <path class="cls-7" d="M99.65,160.33c-.22-.23-.06-.68.12-.91.17-.22.12-.08.04.06-.08.14-.16.4-.05.24.1-.16.51-.59.37-.39-.14.21-.36.61-.29.53.08-.08.53-.47.38-.28-.15.19-.51.61-.38.54s.86-.69.67-.47-.61.53-.5.49.64-.28.47-.15c-.16.13-.58.33-.45.31.13-.02.62-.25.49-.15-.14.11-.54.27-.4.25.13-.03.68-.32.56-.22-.12.1-.62.31-.48.3.14-.01.59-.21.42-.08-.17.13-.57.32-.96-.08Z"/>
            <path class="cls-7" d="M99.53,160.24s-.2-.36-.16-.58c.04-.21.03-.03.04.06,0,.1.04.22.04.09,0-.13.12-.46.11-.3s-.05.63,0,.52c.05-.1.16-.37.13-.19s-.12.43-.05.32c.07-.11.43-.44.33-.31-.1.13-.34.42-.26.37.07-.05.47-.3.32-.16-.15.14-.39.34-.3.31.09-.03.56-.35.45-.23-.11.11-.42.33-.3.29.12-.04.46-.2.33-.12-.12.08-.35.16-.28.17.07.01.27,0,.17.02-.1.03-.25.03-.16.06s.43,0,.31.05c-.12.04-.32,0-.23.07.09.07.48.09.36.14-.12.04-.38.02-.68-.35,0,0-.11-.11-.17-.22Z"/>
            <path class="cls-7" d="M101.39,159.67c.14-.35.75-1.2.75-1.2-.21.11-.73.17-1.49.33-.01,0-.02,0-.04,0,.05,0,.63,0,.85-.06.23-.07.46-.13.35,0-.11.14-.48,1.03-.48,1.03.03-.05.05-.09.06-.12Z"/>
          </g>
          <path class="cls-7" d="M99.69,160.39l-.25-.35s.08.19-.06.29c-.13.1-.19.25-.09.38.11.13.27.1.39,0,.13-.11.3,0,.3,0l-.29-.32Z"/>
          <path class="cls-7" d="M99.68,160.7c.07-.06.16-.05.22-.03,0,0,0,0,0,0-.19-.12-.27.04-.43.05s-.21-.2-.15-.26.11-.19.11-.19h0s-.03.05-.05.06c-.13.1-.19.25-.09.38.11.13.27.1.39,0Z"/>
        </g>
        <path class="cls-7" d="M127.3,85.59c-.1-.23-.26-.55-.51-.67.11-.39.26-.76.3-1.17.02-.15.01-.3,0-.46,0-.01,0-.02,0-.03.07-.6-.22-1.24-.45-1.78-.26-.61-.7-1.17-1.18-1.62-.26-.22-.52-.45-.79-.67-.03,0-.06-.01-.09-.02-.11-.14-.24-.26-.37-.38h0c-.23-.24-.49-.45-.77-.63-.03.39-.25.37-.66-.05-.46-.35-.97-.6-1.51-.73.18.58.08,1.23.02,1.81-.43.07-.75-.1-.97-.53-.37-.4-.76-.76-1.18-1.09-.5,0-.67.54-.77.96-.19-.37-.66-.82-1.17-.74-.22.08-.44.16-.66.25-.03.05-.06.1-.07.14-.24-.41-.54-.75-.88-1.08.44.47.24-.56.11-.77-.53-.85-1.27-1.89-2.17-2.25-.03.25-.04.5-.03.75-.53-.42-1.11-.76-1.74-1-.46-.2-.61-.16-.45.11-.38-.43-.81-.77-1.31-1.03-.51-.08-.62.13-.33.62-.44-.31-.64-.74-1.13-.99-.05.16-.07.33-.06.5-.74-.11-1.36-.32-2.1-.22-.02.32-.04.63-.07.94-.67-.18-1.27-.53-1.94-.73-.07.08-.09.16-.06.23-.05-.07-.12-.15-.2-.23.09-.14.1-.51.15-.84.06-.39.17-.44.44-.74-.05-.37-.22-.66-.52-.86.09-.08.19-.13.31-.15-.06-.34-.23-.59-.51-.75.21-.47.54-.93.19-1.44-.25-.36-.78-.53-1.11-.78-.43-.32-.86-.64-1.33-.92-.21-.12-.45-.3-.7-.28-.67.06-.97,1.06-1.1,1.6.16-.84-.44-1.46-1.08-1.7-.13.05-.2.2-.2.33-.34-.35-.71-.49-1.23-.22-.46.24-.62.32-1.11.11-.16-.37.37-.66.36-1.05-.01-.35-.3-.61-.61-.81.03,0,.05,0,.07,0-.19-.45-.41-.84-.79-1.14.64.08-.07-.87-.27-1.02.21-.32-.08-1.17-.25-1.58.04.04.11.07.19.09.14-.16.11-.31-.1-.44-.37-.77-1.31-.78-1.9-.41-.08.36,0,.66.23.91-.44-.34-1.07-.62-1.62-.44-.04.05-.08.1-.12.16-.22.07-.46.11-.69.1-.13-.29.03-.57-.03-.86-.08-.43-.31-.57-.52-.87-.17-.26-.11-.69-.27-.99-.19-.37-.57-.64-.92-.79-.31-.13-.47-.08-.77-.14-.27-.05-.39-.24-.68-.15-.15.04-.42.22-.33.43-.46-.74-1-1.36-1.61-1.97-.53.19-.62.59-.73,1.16-.29-.19-.55-.41-.79-.67-.27-.27-.37-.28-.31-.04-.52-.3-.84-.51-1.39-.5.04-.02.07-.04.11-.07l-.26.06c-.11-.06-.21-.05-.3.03,0,.01,0,.02,0,.03l-.82.18c-.12-.15-.26-.28-.44-.29-.3-.02-.52.23-.52.5h0c-.35.06-.53-.25-.81-.34-.11-.04-.44-.04-.54.01-.21.11-.11.28-.25.41-.28.26-.79-.11-1.06.15-.38.37.34,1.2.31,1.58-.26-.35-.73-.46-1.12-.46-.13,0-.51-.08-.61.02-.12.13.01.48-.04.65-.19-.08-.27-.28-.45-.39-.14-.08-.32-.06-.44-.14-.16-.11-.46-.43-.52-.64-.08-.31.07-.45-.21-.69-.25-.22-.44-.14-.75-.19-.32.33.4.92.18,1.29-.19.32-.5-.13-.7-.25-.35-.22-1.22-.49-1.64-.3.02.1,0,.19-.07.26-.35-.17-.69-.47-1.06-.59-.4-.13-.59-.08-.64.35-.08.67.2,1.21.43,1.78-.26.37-.63.04-.9.18-.3.16-.2.81.13.89-.31-.03-.51.04-.68-.21,0,0,.02,0,.03,0-.02-.02-.05-.04-.07-.06,0,0,0,0,0,0,0,0,0,0,0,0-.18-.12-.46-.14-.64-.07-.08.37-.07.91,0,1.29-.11-.12-.24-.2-.39-.23-.4.19.07.67.1.91-.25-.16-.94-.58-1.21-.33.13.32.36.65.37,1.01-.36.23-.96-.03-1.37.06-.12.19-.02.41-.07.62-.44-.21-.66-.64-1.15-.77-.93-.26-.04,1.18-.44,1.37-.36-.36-.86-.86-1.38-.9-.02.14,0,.27.03.41-.23-.09-.5-.36-.76-.24-.39.19-.12.76-.01,1.06-.24-.03-.79-.29-.88.1-.06.22.2.46.2.68-.23.09-.6-.12-.8.05-.18.15-.06.46-.28.43.18.15.31.35.49.5-.48-.32-1.24-.37-1.78-.26,0,.39.08,1.3.45,1.49-.35-.14-.62-.27-1-.33-.24.22-.05.53.12.7-.23-.03-.53-.27-.76-.23-.41.06-.56.54-.38.95.11.25.52.62.75.79-.85-.5-.97.9-.47,1.39-.06-.04-.13-.06-.2-.05-.13.22-.4,1.1-.09,1.09.04.04.07.08.11.12-.07.02-.14.05-.22.09-.53.33-.37.92-1.03.88-.34-.02-.84-.04-1.17-.14-.41-.12-.8-.5-1.23-.52.15-.09.12-.21-.08-.39-.29-.31-.64-.47-1.04-.47-.04.1-.09.2-.14.29-.48-.18-.92-.39-1.43-.46-.13.72-1.57.49-1.97.5-.91.02-1.15.02-1.12.99-.33.09-.56-.16-.9-.03-.56.22-.37.8-.32,1.36-.41-.27-.88-.48-.69.26.06.22.2.39.24.6.04.16-.01.43.04.64-.32.2-.13.58-.07.9-.4-.21-.8-.43-1.21-.61-.03.31.12.67.18.97.04.17.14.44.06.59-.07.13-.29.02-.41.18.06.24.14.47.22.69-.12.07-.25.1-.39.1-.22.21-.33.47-.34.79-.04.34-.02,1.16.47,1.15.11-.12.16-.26.16-.42.26.03.47.16.66.38.25.11.51.21.76.32.03.3.03.64-.03.94-.38.13-.84-.22-1.2.1-.17.17-.23.37-.19.61-.11.13-.24.13-.4,0-.16-.08-.32-.08-.48,0-.1.16-.25.18-.43.07-.35-.08-1.23-.75-1.42-.16-.51-.19-.99-.47-1.51-.63-.61-.19-1.29-.39-1.92-.52-.11-.24-.28-.46-.42-.61-.22-.23-.57-.67-.85-.8-.44.43-.19,1.04-.32,1.56-.6-.05-.89,1.1-.51,1.37-.7.11-.71,1.67-.76,2.2-.51-.06-.83.58-.85,1.18-.2-.14-.42-.26-.63-.26-.65.02-.89.89-.88,1.37.01.11.02.23.03.34-.07.12-.15.22-.24.32-.05.17.03.42.15.63-.04.07-.09.14-.15.2-.08.32.18.89.43,1.08,0,.04.02.08.03.12-.06.2-.09.58-.04.89-.01.09-.02.17-.02.2.03,0,.05.01.08.02.03.09.08.16.15.21-.15.17-.22.84-.22.95.27.05.35.25.59.39.43.26,1,.17,1.47.33.35.12.66.33,1.01.5.68.33,1.6-.24,1.85-.95-.04.22.07.57.28.67.19-.08.22-.18.43-.16.14.04.27.11.37.23.18.19.4.29.66.31.3-.53.28-.95.3-1.56.19-.11.77.34.6-.29.47-.1.89.16,1.38.08.23-.04.7-.19.71-.52.08.39.29.88.7.86.11.3.08,2.57.7,2.1-.02.38.22.37.5.4.07,0,.21.03.36.04-.03.46.05.89.22,1.28-.07.01-.13.03-.21.06-.13,1.15.25,2.11,1.05,2.88.14.2.31.38.51.53.16.12.32.18.5.17.03.06.06.11.09.16-.16,0-.32,0-.42.08.02.25.28.28.47.27.16.32.52.73.94,1.01h0c-.29.22-.59.43-.97.58-.45-.05-1.48-.33-1.71,0-.36.5.27,1.1.64,1.26-.64-.04-1.6-.18-1.44.58-.63-.1-.96.28-.81.61-.96-.79-3.18-.12-1.81.57-.98-.21-1.69.6-1.08.99-2.3.15.86,1.41,1.69,1.47-.02.57-.02.5.68.54-.07.1-.32.35-.42.42-.58-.3-1.3-.33-1.95-.25,0,.17-.04.36-.04.53-.8,0-1.75-.41-2.01.58-.65.09-.49.03-.67.57.28.02.52.18.79.2-.26.1-.38.3-.55.4.58.61,3.03,1.14,3.89,1.1-.09.11-.19.2-.27.3.61.29,1.42-.03,1.83.58-.43.17-3.43.39-1.82,1.03-.38-.1-.97,0-1.2.4-.24-.04-.57.06-.81.05.17.32-.02.4.37.71-.6-.25-1.37-.36-1.41.4-.86-.27-3.82-.52-3.73.86-.96-.45-1.18.39-.96,1.17.5.14,1.04.19,1.57.15-.01.23.06.45.06.64.88.1,2.24.59,2.93-.05.22.54.7.7,1.3.55-.17.23-.16.71-.3.94.39.09.85.29,1.28.21-.09.7.36.87,1,.61-.04.2.07.5.04.69.46.19.97.14,1.41-.13-.07.26.1.64.07.82.24-.1.63,0,.9-.12.03.3.26.49.31.71.44-.13.93-.2,1.28-.54,0,.16.02.33.01.49.37-.05.89-.02,1.27-.23.19.83.87.9,1.48.27.25,1.16,3.06,1.15,3.43.05.72.29,1.01-.07,1.12-.59.09.04.19.08.29.11,2.12.71,4.85-1.07,6.71.29,1.24.91,1.94,2.4,2.32,3.73.58,2.02,1.92,1.92,3.13,3.28-1.33-.4-2.23-.56-3.41-.02-.67.3-.96.74-1.69.89,1.05.32,1.29,1.07,2.28,1.16.6.06,1.4-.31,2.15-.19.68.11,1.29.44,1.95.58,1.49.32,2.77-.12,4.02.89.79.65,1.2,1.56,1.47,2.51.51,1.8.53,3.35,1.34,5.15.17.39.39.83.64,1.23-.02.21-.05.43-.07.64,0,.08-.02.16-.03.24-.02.17-.04.34-.06.52,0,.09-.02.17-.03.26-.02.17-.04.34-.06.52,0,.08-.02.16-.03.24-.03.25-.06.5-.09.75,0,0,0,.01,0,.02-.03.25-.06.5-.09.74,0,.08-.02.15-.03.23-.02.18-.04.36-.07.53-.01.09-.02.18-.03.27-.02.18-.05.35-.07.53-.01.08-.02.16-.03.24-.03.25-.07.51-.1.76,0,0,0,.02,0,.03-.03.24-.06.49-.1.73-.01.09-.02.18-.03.26-.02.17-.05.35-.07.52-.01.09-.02.18-.04.27-.02.18-.05.36-.07.54-.01.08-.02.16-.03.24-.03.25-.07.51-.1.76,0,.02,0,.05,0,.07-.03.23-.06.47-.1.7-.01.08-.02.17-.03.25-.02.17-.05.35-.07.52-.01.09-.02.17-.04.26-.03.18-.05.36-.08.54-.01.08-.02.15-.03.23-.04.25-.07.49-.11.74,0,.04-.01.08-.02.12-.03.21-.06.42-.09.63-.01.08-.02.16-.04.24-.02.17-.05.34-.07.51-.01.09-.03.18-.04.27-.03.17-.05.35-.08.52-.01.07-.02.14-.03.21-.04.24-.07.49-.11.73,0,.02,0,.04,0,.06-.03.22-.06.44-.1.65-.01.08-.02.15-.03.23-.02.17-.05.33-.07.49-.01.08-.02.15-.03.23-.03.17-.05.34-.08.51,0,.06-.02.13-.03.19-.04.23-.07.46-.11.69,0,0,0,0,0,.01-.03.22-.07.44-.1.66,0,.06-.02.13-.03.19-.02.16-.05.32-.07.47-.01.07-.02.15-.03.22-.03.17-.05.33-.08.5,0,.04-.01.09-.02.13-.03.22-.07.44-.1.65,0,0,0,.02,0,.03-.03.2-.06.39-.09.59,0,.05-.02.11-.03.16-.02.16-.05.31-.07.46,0,.05-.01.09-.02.14-.03.16-.05.32-.07.47,0,.04-.01.09-.02.13-.03.19-.06.38-.09.57-.24,1.52-.46,2.83-.62,3.85,0,.04-.01.09-.02.13-.03.2-.06.38-.09.55,0,0,0,.01,0,.02-.01.08-.02.15-.04.22,0,.02,0,.04-.01.07,0,.05-.02.1-.02.14,0,.04-.01.08-.02.12,0,.05-.02.11-.03.16,0,0,0,.02,0,.03-.02.13-.04.25-.06.36,0,.01,0,.03,0,.04,0,.03-.01.07-.02.1,0,.02,0,.04-.01.06-.01.08-.03.15-.04.21-.02.11-.03.18-.03.2,0,0,0,0,0,0h0s.76,1.04,3.23,1.69c1.12.3,2.6.51,4.51.51s3.27-.21,4.24-.51c2.12-.65,2.32-1.69,2.32-1.69h0s-2.93-10.16-3.48-15.53c-.03-.26-.05-.52-.06-.76-.09-1.44-.17-3.1-.23-4.83-.03-.96-.06-1.95-.07-2.93,0-.2,0-.39,0-.59,0-.39,0-.78,0-1.17,0-2.32.07-4.53.26-6.27.05-.43.1-.84.16-1.21.12-.74.31-1.37.53-1.93.07-.19.15-.37.23-.54.04-.09.08-.17.12-.25.96-1.9,2.24-2.92,2.24-4.58h0c0-2.31-1.29-3.92-1.4-5.32-.09-1.22-.44-4.67-.45-6.52,0-.26,0-.5.02-.68.11-1.51.97-4.3,1.61-5.16.64-.86,2.15-1.4,4.84-1.94.16-.03.32-.06.49-.1.16-.03.31-.06.47-.09,0,0,.02,0,.03,0,.16-.03.32-.06.48-.1,0,0,.01,0,.02,0,.16-.03.32-.07.48-.1,0,0,.02,0,.02,0,.16-.04.32-.07.48-.11,0,0,.01,0,.02,0,.16-.04.32-.08.48-.13,0,0,.01,0,.02,0,.16-.05.32-.09.48-.14,0,0,.01,0,.02,0,.16-.05.32-.11.48-.16,0,0,0,0,0,0,1.14-.42,2.22-1.03,3.16-2.01h0c.1-.11.2-.22.3-.33.02-.02.03-.04.05-.06.1-.11.19-.23.28-.36.23-.31.46-.59.68-.83.16.01.31.03.47.04.18.13.25.31.18.53.08.35.13.58.28.92.24.53.37,1.01.72,1.47.53.7,1.53,1.4,2.29.77.29.09.46.43.73.52.61.2,1.15-.11,1.58-.54.45-.44.6-1.25.42-1.88.27.72,1.8.66,1.49-.29.18-.01.35,0,.53.04.27-.18.44-.44.5-.78-.26-.46-.89-.21-1.14-.76.46-.09.93-.11,1.4-.06.62.02,1.24.03,1.87.02.59-.29.48-.95.93-1.38.48-.46,1.44-.46,1.24-1.48-.08-.41-.3-.83-.68-.99.02-.14.05-.27.08-.39.38-.18.71-.4.59-.98-.04-.19-.12-.39-.25-.56,0-.18-.03-.38-.09-.58.23.12.47.33.69.1.2-.21.08-.43.11-.73.21-.06.35.02.57.07.58.11.94.26,1.47-.07-.08-.62-.3-1.16-.43-1.77,0,0,0-.02,0-.02.14-.02.28-.07.44-.16-.06-.39-.18-.74-.29-1.11.53.12,1.05.33,1.55.2.87-.22,1.81-1.2,2.34-1.93.07.2.17.37.32.52.65-.21,1.29-.37,1.97-.52.24.22.14.6.32.81.36.41,1.18.4,1.6.17.41-.23.52-.44.55-.97.02-.32-.11-.62-.15-.92.04-.06.08-.14.1-.22.37.07.72.09,1.07-.16.22-.16.44-.64.61-.86.24-.33.33-.48.38-.93.02-.2.07-.65-.05-.91.01-.05.02-.11.03-.17.06-.05.07-.17.03-.31.02-.27.01-.63-.19-.74.51.11-.05-.89-.19-1.15.09-.09.21-.15.38-.15.9-.04,1.95.79,2.8.22.42-.28.4-.69.26-1.1.17-.26.09-.58-.06-.89ZM95.16,105.9c-.06.04-.13.08-.19.12-.16.09-.32.19-.49.27-.08.04-.17.09-.25.13-.02.01-.05.03-.08.04-.06.03-.12.06-.19.09-.03.01-.05.03-.08.04-.08.04-.15.08-.23.11,0,0-.02,0-.03.01-.09.04-.17.08-.26.12-.03.01-.05.02-.08.03-.06.03-.13.06-.19.09-.03.01-.06.02-.08.04-.07.03-.15.07-.22.1-.01,0-.03.01-.04.02-.09.04-.18.07-.26.11-.03.01-.05.02-.08.03-.06.03-.13.05-.19.08-.03.01-.06.02-.09.04-.07.03-.13.05-.2.08-.02,0-.04.02-.06.03-.08.03-.17.07-.25.1-.03.01-.06.02-.08.03-.06.02-.12.04-.17.06-.03.01-.07.02-.1.04-.05.02-.11.04-.16.06-.03.01-.06.02-.09.03-.08.03-.15.05-.23.08-.04.01-.07.02-.11.04-.04.01-.08.03-.13.04-.04.01-.08.03-.12.04-.04.01-.07.02-.11.04-.04.01-.08.03-.12.04-.03.01-.07.02-.1.03-.07.02-.14.04-.21.06-.03,0-.05.02-.07.02-.04.01-.08.02-.13.04-.02,0-.04.01-.06.02-.14.04-.28.08-.41.11-.01,0-.02,0-.03,0-.04,0-.08.02-.11.03-.01,0-.02,0-.03,0-.12.03-.23.05-.33.06,0,0,0,0,0,0-.03,0-.06,0-.08,0,0,0-.01,0-.02,0-.03,0-.05,0-.07,0-.27.01-.32-.08-.06-.28,1.08-.86,3.44-4.19,4.73-5.13.44-.32,1.01-.84,1.64-1.49h0s0,0,0,0c.46-.47.95-1,1.45-1.57,0,0,.01-.01.02-.02,0,.04,0,.08-.02.12-.07.4-.26.66-.21,1.07.03.22.12.36.25.45,0,.27,0,.54-.04.79-.07.44-.26.73-.21,1.19.06.57.49.66.98.75.03.06.04.11.04.17-.06.04-.11.09-.17.13,0,0-.01.01-.02.02-.26.21-.53.41-.8.6-.05.04-.1.07-.15.1-.09.07-.19.13-.29.2-.08.05-.16.11-.24.16-.09.06-.18.11-.27.17ZM74.18,112.69s-.02-.07-.03-.11c-.03-.12-.06-.25-.09-.38,0,0,0,0,0-.01-.15-.66-.26-1.36-.31-2.08-.06-.88-.02-1.79.15-2.73h0c.03-.17.07-.35.11-.52,0-.01,0-.02,0-.04.04-.18.09-.36.14-.54.24-.79.54-1.35.88-1.88.06-.1.12-.19.19-.29-.08.86.05,1.59.74,2.15.21.14.42.29.63.43.2.04.39.09.59.13.22.09.33.25.33.5.03.31.18.56.45.74.31-.03.54-.2.68-.49.42.08.85.11,1.28.09.36-.24.73-.49,1.09-.73.46-.49.64-1.05.55-1.68.1-.1.2-.2.31-.3.34-.26.57-.63.68-1.09.22-.71.1-1.13-.18-1.76.24-.02.47.02.69.11,0,.09,0,.18,0,.27,0,.06,0,.12,0,.17,0,.06,0,.12,0,.18,0,.06,0,.12,0,.17,0,.06,0,.12,0,.18,0,.06,0,.11,0,.17,0,.06,0,.12-.01.18,0,.06,0,.11-.01.17,0,.06,0,.11-.01.17,0,.05,0,.11-.01.16,0,.06,0,.11-.02.17,0,.05,0,.11-.02.16,0,.05-.01.11-.02.16,0,.05-.01.11-.02.16,0,.05-.01.11-.02.16,0,.05-.01.1-.02.15,0,.05-.01.1-.02.15,0,.05-.01.1-.02.15,0,.05-.02.1-.02.15,0,.05-.02.09-.03.14,0,.05-.02.1-.03.14,0,.05-.02.09-.03.14,0,.05-.02.09-.03.14-.01.05-.02.09-.03.14-.01.04-.02.09-.03.13-.01.04-.02.09-.04.13-.01.04-.02.08-.03.12-.01.05-.03.09-.04.13-.01.03-.02.07-.03.1-.13.39-.28.73-.47,1-1.36,1.97-2.15,5.43-2.76,7.66,0,.02-.01.04-.02.06-.01.04-.02.09-.04.13,0,.04-.02.07-.03.1-.01.05-.03.09-.04.14-.02.05-.03.1-.05.16,0,.03-.02.06-.03.09-.01.04-.03.09-.04.13,0,.02-.01.05-.02.07-.02.06-.04.12-.05.17,0,.02-.01.04-.02.06-.01.04-.03.09-.04.13,0,.02-.01.03-.02.05-.02.05-.04.1-.06.15,0,.01-.01.03-.02.04-.01.04-.03.07-.04.11,0,.01,0,.02-.01.03-.02.04-.04.08-.06.12,0,0,0,.02-.01.03-.02.03-.03.06-.05.08,0,0,0,.02-.01.03-.02.03-.04.06-.06.08,0,0,0,0-.01.01-.02.02-.03.04-.05.05,0,0,0,.01-.01.01-.02.02-.04.03-.06.04,0,0,0,0,0,0-.02,0-.03.01-.05.02,0,0,0,0-.01,0-.02,0-.04,0-.06,0,0,0,0,0,0,0-.02,0-.03-.01-.05-.02,0,0,0,0-.01,0-.02-.01-.04-.03-.06-.05,0,0,0,0,0,0-.02-.02-.04-.05-.05-.07,0,0-.01-.02-.02-.02-.02-.03-.04-.07-.06-.1h0c-.97-1.94-3.01-1.83-3.66-3.87-.04-.12-.08-.25-.11-.38-.03-.09-.05-.18-.08-.28ZM70.85,109.45c.07.42.14.8.21,1.11,0,0,0,.01,0,.02.01.07.03.14.04.2,0,.01,0,.02,0,.03.01.06.02.11.04.16,0,.01,0,.02,0,.03.01.05.02.09.03.14,0,0,0,.02,0,.03.01.05.02.1.03.14-.02-.07-.05-.15-.09-.22-.01-.02-.03-.05-.04-.07-.03-.05-.05-.1-.08-.15-.02-.03-.04-.06-.06-.09-.03-.05-.06-.09-.1-.14-.02-.03-.04-.06-.07-.09-.04-.05-.07-.09-.11-.14-.02-.03-.05-.06-.07-.09-.04-.05-.09-.11-.14-.16-.02-.02-.04-.05-.06-.07-.07-.08-.14-.15-.21-.23-.06-.07-.13-.14-.2-.21,0,0,0,0,0,0h0c-.76-.81-1.65-1.78-2.08-3.14,0-.01,0-.02-.01-.04h0c-.19-.61-.39-1.16-.6-1.71.51-.19.92-.43.83-1.22.75-.11.53-1.63.5-2.17.22.09.43.19.63.32.39-.53.4-1.01.39-1.68.2.42.76.8,1.33,1.01-.05.2-.1.41-.16.61-.03.12-.06.23-.09.35,0,.04-.02.08-.02.11-.02.08-.04.16-.05.25,0,.05-.02.09-.02.14-.01.08-.03.15-.04.23,0,.05-.01.09-.02.14-.01.08-.02.16-.03.24,0,.05-.01.09-.02.14,0,.08-.02.16-.03.25,0,.04,0,.09-.01.13,0,.09-.01.18-.02.27,0,.04,0,.08,0,.12,0,.1-.01.2-.01.3,0,.03,0,.06,0,.09,0,.13,0,.26,0,.39,0,0,0,0,0,0h0c-.02,1.69.19,3.4.41,4.68h0ZM94.53,99.5c.22-.38.36-.82.52-1.22.17.09.33.18.48.27-.36.36-.71.69-1.01.95ZM84.76,100.39s0-.08-.01-.11c0-.05-.01-.1-.02-.15-.01-.08-.02-.17-.03-.25,0-.04-.01-.09-.02-.13,0-.07-.02-.13-.02-.2,0-.04-.01-.08-.02-.12-.01-.1-.03-.21-.04-.32,0-.03,0-.07-.01-.1,0-.03,0-.05,0-.08.47.08.95.03,1.42-.11-.03.1-.05.19-.08.29-.01.04-.02.08-.03.12-.03.12-.06.24-.09.36,0,.04-.02.07-.03.11-.02.09-.04.18-.07.26-.01.05-.02.09-.03.14-.02.1-.05.19-.07.29-.01.04-.02.09-.03.13-.02.08-.04.16-.06.23-.01.05-.02.09-.03.14-.01.06-.03.12-.04.18-.03.11-.05.21-.07.31,0,.01,0,.02,0,.03-.06.23-.11.45-.15.62-.11.47-.18.72-.18.6,0-.24-.1-.94-.26-2.21ZM63.48,102.4c.27-.26.32-.59.75-.69.24.68.47,1.36.71,2.04-.04.51-.46.58-1.51-.04.23-.3.21-.78.04-1.31ZM72.1,104.68c-.02-.06-.03-.12-.05-.19,0,0,0,0,0,0-.01-.07-.02-.14-.03-.21,0,0,0,0,0,0,0-.07-.02-.15-.02-.22,0,0,0,0,0,0,0-.08,0-.16,0-.24h0c0-.09,0-.18,0-.27,0,0,0,0,0,0,0-.09,0-.19.02-.29,0,0,0,0,0,0,0-.1.02-.21.03-.32,0,0,0,0,0,0,.01-.11.02-.23.04-.35,0,0,0,0,0,0,.06-.44.13-.96.23-1.55.28-.21.56-.51.85-.31.3.21.39.72.78.77.07.07.15.12.22.15.08.15.13.3.12.46-.06.06-.12.12-.19.18-.16.37-.24.75-.25,1.14-.02.03-.05.06-.07.09-.02.03-.05.07-.07.1-.03.04-.06.07-.08.1-.02.03-.05.06-.07.09-.03.04-.06.08-.09.11-.04.05-.09.1-.13.15-.02.03-.05.06-.07.08-.03.03-.05.06-.08.08-.02.02-.05.05-.07.07-.02.03-.05.05-.07.08-.02.02-.04.04-.06.06-.02.02-.05.05-.07.07-.02.02-.04.04-.06.05-.02.02-.05.04-.07.06-.02.02-.04.03-.06.05-.02.02-.04.03-.06.05-.02.01-.03.02-.05.04-.02.01-.04.03-.06.04-.02,0-.03.02-.05.03-.02.01-.04.02-.05.03-.01,0-.03.01-.04.02-.02,0-.03.01-.05.02-.01,0-.02,0-.03,0-.01,0-.03,0-.04,0h0c-.07,0-.13-.05-.16-.14,0-.02-.01-.04-.02-.06ZM82.36,99.83c.23-.01.45.02.67.1,0,.05,0,.1,0,.16,0,.06,0,.12,0,.18,0,.07,0,.13,0,.2,0,.06,0,.12,0,.19,0,.07,0,.13,0,.2,0,.06,0,.12,0,.18,0,.07,0,.14,0,.2,0,.05,0,.11,0,.16-.09-.19-.22-.36-.41-.52.01-.35-.1-.65-.29-1.03ZM84.26,107.54c.56-.74,1.35-2.76,2.18-4.89h0c.13-.34.26-.68.4-1.02.18-.46.31-.9.41-1.32.03-.14.06-.27.08-.41.01,0,.03.01.04.02.48.23.48.21.45.82-.02.33-.14.86.08,1.15.35.46,1.51.34,1.78-.23-.04.17-.05.35-.05.53.46.1.92-.05,1.37-.31-.01.02-.02.04-.03.05-.02.04-.05.07-.07.11-.04.06-.08.13-.12.19-.03.05-.06.09-.09.14-.04.05-.07.1-.11.15-.04.05-.08.1-.11.16-.03.04-.06.08-.09.12-.05.06-.09.12-.14.18,0,0,0,0,0,0-.21.26-.44.52-.67.77-2.4,2.58-5.8,4.46-5.29,3.77ZM46.54,92.64s0,.01,0,.02c0-.02-.01-.04-.02-.07,0,.02.01.03.02.05ZM46.58,92.83c.04.12.11.23.21.32,0,0,0,0,0,.01-.1-.06-.19-.11-.28-.15.04-.05.06-.1.06-.18ZM81.97,55.66c-.04.15-.08.31-.13.46-.16,0-.28-.11-.39-.24.18-.06.35-.14.52-.22ZM35.11,85.33s0,0,0-.01c.02-.07.02-.16.02-.26.05.22.14.4.29.51-.1-.06-.2-.15-.32-.24ZM47.69,100.25c-.14.04-.29.07-.46.09l.46-.09ZM54.28,118.59s-.02,0-.03,0c0-.04,0-.08-.01-.11.96.5.97-.59.88-1.35.82-.06,1.42-.37,1.7-1.12.46.87.88.68,1.36.43,1.01.42,1.73,1.25,2.34,2.16-2.63-1.49-3.83.63-6.24,0ZM60.55,116.35c.14-.06.29-.17.45-.33.03.13.06.26.1.39.46-.21.89-.51,1.31-.83-.08.94.85,1.43,1.75,1.52.21,1.41.26,2.84.27,3.86-.3-2.05-2.18-3.6-3.88-4.6ZM69.84,125.32c-.94-.44-1.77-.99-2.69-1.47-1.19-.62-1.28-.35-1.43-1.72-.19-1.76-.06-3.51-.38-5.21.28-.14.45-.36.4-.66,1.22.55,1.38-1.86.55-2.27.6-.52-.85-3.11-1.65-3.21.31-1.09-.77-1.24-1.61-1.11.81-.13,1.57-.33,2.39-.44-.21-.48-.82-1.09-1.13-1.45-1.02-1.14-.71-.62-2.3-.86-2.08-.31-2.18-.87-1.11-2.25.44.12.92.17,1.29,0,.01.01.03.02.04.03,0,0,0,0,0,0h0c2.18,1.71,4.21,2.75,4.21,3.8,0,.33.16.78.42,1.32h0s0,0,0,0c.04.07.08.15.12.23.02.03.03.06.05.09.04.07.08.15.12.23.02.03.04.07.06.1.04.08.09.16.14.23.02.03.04.07.06.1.05.08.1.17.16.25.01.02.03.05.04.07.19.31.41.62.63.95,0,.01.02.02.03.04.07.1.13.19.2.29.02.03.05.07.07.1.07.09.13.18.2.28.03.04.05.07.08.11.07.09.14.18.2.27.03.04.05.07.08.11.07.09.14.19.22.28.01.02.03.04.04.05.25.32.5.64.75.95.03.04.07.08.1.12.07.08.13.16.2.24.04.05.08.1.12.15.06.08.13.15.19.23.04.05.09.11.13.16.06.07.12.14.18.21.05.06.09.11.14.17.06.07.11.13.17.2.06.07.11.13.17.19.08.1.17.19.25.29.06.07.12.13.17.2.05.05.09.1.14.15.06.06.11.12.17.18.04.05.09.09.13.14.06.06.11.12.17.18.04.04.08.09.12.13.06.06.11.12.17.17.04.04.07.07.11.11.07.07.13.13.19.19.02.02.04.05.07.07.08.08.16.16.24.24.02.02.04.04.06.06.06.05.11.11.17.15.03.02.05.05.08.07.05.04.09.08.13.12.02.02.05.04.07.06.04.03.08.07.12.09.02.02.04.03.06.05.04.03.07.05.11.08.02.01.03.02.05.03.05.03.09.06.13.08.89.44,1.77,3.43,1.75,9.65,0,.9-.03,1.86-.07,2.9-1.06-2.96-3.22-4.86-6.22-6.27Z"/>
        <path class="cls-7" d="M104.54,170.77s0-2.7-3.56-3.77c0,0,3.02-.43,4.85,2.59,0,0-1.02-4.37-4.37-5.61,0,0,4.47.43,5.98,5.34,0,0,0-3.13-.7-4.26,0,0,1.62,2.1,1.72,3.93,0,0,.86-4.91,3.13-6.25,0,0-1.35,3.13-1.72,5.39,0,0,.57-1.83,4.49-2.37,0,0-3.14,1.67-3.68,3.72,0,0,3.02-2.16,6.52-1.72,0,0-4.37.81-5.39,3.02-1.02,2.21-6.68,2.37-7.28,0Z"/>
        <path class="cls-7" d="M59.51,165.65s0-2.7-3.56-3.77c0,0,3.02-.43,4.85,2.59,0,0-1.02-4.37-4.37-5.61,0,0,4.47.43,5.98,5.34,0,0,0-3.13-.7-4.26,0,0,1.62,2.1,1.72,3.93,0,0,.86-4.91,3.13-6.25,0,0-1.35,3.13-1.72,5.39,0,0,.57-1.83,4.49-2.37,0,0-3.14,1.67-3.68,3.72,0,0,3.02-2.16,6.52-1.72,0,0-4.37.81-5.39,3.02-1.02,2.21-6.68,2.37-7.28,0Z"/>
        <path class="cls-7" d="M40.59,166.4s0-2.7-3.56-3.77c0,0,3.02-.43,4.85,2.59,0,0-1.02-4.37-4.37-5.61,0,0,4.47.43,5.98,5.34,0,0,0-3.13-.7-4.26,0,0,1.62,2.1,1.72,3.93,0,0,.86-4.91,3.13-6.25,0,0-1.35,3.13-1.72,5.39,0,0,.57-1.83,4.49-2.37,0,0-3.14,1.67-3.68,3.72,0,0,3.02-2.16,6.52-1.72,0,0-4.37.81-5.39,3.02-1.02,2.21-6.68,2.37-7.28,0Z"/>
      </g>
    </g>
  </g>
</svg>