<?xml version="1.0" encoding="UTF-8"?>
<svg id="Layer_2" xmlns="http://www.w3.org/2000/svg" xmlns:xlink="http://www.w3.org/1999/xlink" viewBox="0 0 339.75 190.59">
  <defs>
    <style>
      .cls-1 {
        fill: url(#linear-gradient-27);
      }

      .cls-1, .cls-2, .cls-3, .cls-4 {
        opacity: .56;
      }

      .cls-5 {
        fill: url(#linear-gradient-15);
      }

      .cls-6 {
        fill: url(#linear-gradient-13);
      }

      .cls-7 {
        fill: url(#linear-gradient-2);
      }

      .cls-8 {
        fill: url(#linear-gradient-25);
      }

      .cls-9 {
        fill: url(#linear-gradient-10);
      }

      .cls-10 {
        fill: url(#linear-gradient-12);
      }

      .cls-11 {
        fill: #fff;
      }

      .cls-12 {
        fill: url(#linear-gradient-4);
      }

      .cls-12, .cls-13 {
        opacity: .38;
      }

      .cls-14 {
        fill: url(#linear-gradient-26);
      }

      .cls-15 {
        fill: none;
      }

      .cls-16 {
        fill: url(#linear-gradient-5);
      }

      .cls-17 {
        fill: url(#linear-gradient-22);
      }

      .cls-18 {
        fill: url(#linear-gradient-24);
      }

      .cls-19 {
        fill: url(#linear-gradient-8);
      }

      .cls-13 {
        fill: url(#linear-gradient-3);
      }

      .cls-20 {
        fill: url(#linear-gradient-14);
      }

      .cls-21 {
        fill: url(#linear-gradient-20);
      }

      .cls-22 {
        fill: url(#linear-gradient-17);
      }

      .cls-23 {
        fill: url(#linear-gradient-7);
      }

      .cls-24 {
        fill: url(#linear-gradient-9);
      }

      .cls-25 {
        fill: url(#linear-gradient-11);
      }

      .cls-26 {
        fill: url(#linear-gradient-19);
      }

      .cls-27 {
        fill: url(#linear-gradient-6);
      }

      .cls-28 {
        fill: url(#linear-gradient-21);
      }

      .cls-2 {
        fill: url(#linear-gradient-29);
      }

      .cls-29 {
        fill: url(#linear-gradient-16);
      }

      .cls-3 {
        fill: url(#linear-gradient-28);
      }

      .cls-30 {
        fill: url(#linear-gradient);
      }

      .cls-31 {
        fill: url(#linear-gradient-23);
      }

      .cls-32 {
        clip-path: url(#clippath);
      }

      .cls-33 {
        fill: url(#linear-gradient-18);
      }

      .cls-4 {
        fill: url(#linear-gradient-30);
      }
    </style>
    <clipPath id="clippath">
      <rect class="cls-15" width="339.75" height="190.59"/>
    </clipPath>
    <linearGradient id="linear-gradient" x1="169.87" y1="179.93" x2="169.87" y2="10.47" gradientUnits="userSpaceOnUse">
      <stop offset="0" stop-color="#fbb03b"/>
      <stop offset=".18" stop-color="#f3ad3d"/>
      <stop offset="1" stop-color="#003f7b"/>
    </linearGradient>
    <linearGradient id="linear-gradient-2" x1="169.87" y1="78.48" x2="169.87" y2="156.5" gradientTransform="translate(275.36 -55.85) rotate(81.87)" gradientUnits="userSpaceOnUse">
      <stop offset="0" stop-color="#fbb03b"/>
      <stop offset="1" stop-color="#e95a36"/>
    </linearGradient>
    <linearGradient id="linear-gradient-3" x1="84.13" y1="77.19" x2="84.13" y2="162.79" gradientUnits="userSpaceOnUse">
      <stop offset="0" stop-color="#fff"/>
      <stop offset=".99" stop-color="#fff" stop-opacity="0"/>
    </linearGradient>
    <linearGradient id="linear-gradient-4" x1="-2327.49" y1="81.48" x2="-2327.49" y2="167.08" gradientTransform="translate(-2071.86) rotate(-180) scale(1 -1)" xlink:href="#linear-gradient-3"/>
    <linearGradient id="linear-gradient-5" x1="169.87" y1="129.14" x2="169.87" y2="189.72" gradientUnits="userSpaceOnUse">
      <stop offset="0" stop-color="#1d1934"/>
      <stop offset="1" stop-color="#003f7b"/>
    </linearGradient>
    <linearGradient id="linear-gradient-6" x1="174.55" y1="127.64" x2="174.55" y2="188.22" xlink:href="#linear-gradient-5"/>
    <linearGradient id="linear-gradient-7" x1="174.69" y1="127.64" x2="174.69" y2="188.22" xlink:href="#linear-gradient-5"/>
    <linearGradient id="linear-gradient-8" x1="154.64" y1="127.64" x2="154.64" y2="188.22" xlink:href="#linear-gradient-5"/>
    <linearGradient id="linear-gradient-9" x1="201.79" y1="127.64" x2="201.79" y2="188.22" xlink:href="#linear-gradient-5"/>
    <linearGradient id="linear-gradient-10" x1="148.43" y1="109.42" x2="148.43" y2="193.21" xlink:href="#linear-gradient-5"/>
    <linearGradient id="linear-gradient-11" x1="150.85" y1="109.42" x2="150.85" y2="193.21" xlink:href="#linear-gradient-5"/>
    <linearGradient id="linear-gradient-12" x1="135.43" y1="109.42" x2="135.43" y2="193.21" xlink:href="#linear-gradient-5"/>
    <linearGradient id="linear-gradient-13" x1="143.64" y1="109.42" x2="143.64" y2="193.21" xlink:href="#linear-gradient-5"/>
    <linearGradient id="linear-gradient-14" x1="152.08" y1="109.42" x2="152.08" y2="193.21" xlink:href="#linear-gradient-5"/>
    <linearGradient id="linear-gradient-15" x1="139.97" y1="109.42" x2="139.97" y2="193.21" xlink:href="#linear-gradient-5"/>
    <linearGradient id="linear-gradient-16" x1="116.06" y1="132.98" x2="116.06" y2="188.36" xlink:href="#linear-gradient-5"/>
    <linearGradient id="linear-gradient-17" x1="112.19" y1="132.98" x2="112.19" y2="188.36" xlink:href="#linear-gradient-5"/>
    <linearGradient id="linear-gradient-18" x1="108.44" y1="132.98" x2="108.44" y2="188.36" xlink:href="#linear-gradient-5"/>
    <linearGradient id="linear-gradient-19" x1="208.63" y1="129.48" x2="208.63" y2="194.81" xlink:href="#linear-gradient-5"/>
    <linearGradient id="linear-gradient-20" x1="188.09" y1="129.48" x2="188.09" y2="194.81" xlink:href="#linear-gradient-5"/>
    <linearGradient id="linear-gradient-21" x1="96.19" y1="129.48" x2="96.19" y2="194.81" xlink:href="#linear-gradient-5"/>
    <linearGradient id="linear-gradient-22" x1="246.91" y1="128.88" x2="246.91" y2="194.21" xlink:href="#linear-gradient-5"/>
    <linearGradient id="linear-gradient-23" x1="231.16" y1="77.1" x2="231.16" y2="88.06" xlink:href="#linear-gradient-5"/>
    <linearGradient id="linear-gradient-24" x1="240.37" y1="82.28" x2="240.37" y2="93.23" xlink:href="#linear-gradient-5"/>
    <linearGradient id="linear-gradient-25" x1="244.98" y1="70.91" x2="244.98" y2="81.86" xlink:href="#linear-gradient-5"/>
    <linearGradient id="linear-gradient-26" x1="254.11" y1="75.65" x2="254.11" y2="86.61" xlink:href="#linear-gradient-5"/>
    <linearGradient id="linear-gradient-27" x1="-144.25" y1="1388.54" x2="-144.25" y2="1367.2" gradientTransform="translate(-873.38 -841.6) rotate(-57.02)" xlink:href="#linear-gradient-3"/>
    <linearGradient id="linear-gradient-28" x1="-209.98" y1="1306.02" x2="-209.98" y2="1284.68" gradientTransform="translate(-873.38 -841.6) rotate(-57.02)" xlink:href="#linear-gradient-3"/>
    <linearGradient id="linear-gradient-29" x1="-251.42" y1="1297.09" x2="-251.42" y2="1275.75" gradientTransform="translate(-873.38 -841.6) rotate(-57.02)" xlink:href="#linear-gradient-3"/>
    <linearGradient id="linear-gradient-30" x1="-258.81" y1="1245.83" x2="-258.81" y2="1224.49" gradientTransform="translate(-873.38 -841.6) rotate(-57.02)" xlink:href="#linear-gradient-3"/>
  </defs>
  <g id="OBJECTS">
    <g class="cls-32">
      <g>
        <rect class="cls-30" width="339.75" height="190.59"/>
        <circle class="cls-7" cx="169.87" cy="130.81" r="58.33" transform="translate(16.37 280.49) rotate(-81.87)"/>
        <path class="cls-13" d="M0,190.59v-101.44s5.76-.23,6.76,3.12c0,0,6-1.39,6.33,3.32,0,0,1.67-4.09,6.67-2.44,0,0,.83-3.3,5.17-3.3s4.83,3.3,4.83,3.3c0,0,4.33-.82,4.67,3.44,0,0,5,0,3.67,3.71,0,0,4.5-.96,4.33,3.44,0,0,1.67-2.75,5-.83,0,0,1-2.61,4.33-1.1,0,0,2.5-3.16,5.5-1.51,3,1.65,2.5,3.71,2.5,3.71,0,0,3.83-1.88,3.83,1.61,0,0,3.67-2.98,5.33.73,0,0,3.67-2.06,5.33,1.65,0,0,2-2.89,4.83-1.1,0,0,1.67-2.29,4-1.28,0,0,1.33-2.02,3.5-1.06,2.17.96,1.33,2.89,1.33,2.89,0,0,3.83-.82,3.5,2.54,0,0,3.33-.59,3,2.28,0,0,2.17-2.32,5,0,0,0,2.3-2.38,4.65-.3,0,0,2.12-2.72,4.36,0,0,0,1.18-2.47,3.75-1.16,2.57,1.31,1.74,2.82,1.74,2.82,0,0,4.22-1.04,3.85,2.43,0,0,2.91-.95,4.16,2.26,0,0,1.16-2.25,3.49,0,0,0,.87-1.74,2.77-.71,0,0,1.07-1.65,2.82-.89,0,0,1.17-1.72,3.08-.34,1.92,1.38.5,2.73.5,2.73,0,0,2.33-.05,2,1.8,0,0,2.49-1.16,3.37,1.52,0,0,.96-1.66,2.88-.35,0,0,2.5-1.03,2.75,1.58,0,0,2.42-1.03,2.5,1.79,0,0,2.51-1.31,2.75,1.03,0,0,2.31-1.03,3.28,1.69,0,0,.46-1.75,2.8-.72,0,0,.92-2.06,2.58-.14,0,0-.08-1.86,2.25-1.03,2.33.83.75,3.03.75,3.03,0,0,3.11-1.47,2.6,2.25s3.74,1.53,3.07,5c-.67,3.47.07,5.12.07,5.12l-11.99,29.98L0,190.59Z"/>
        <path class="cls-12" d="M339.75,194.87v-101.44s-5.76-.23-6.76,3.12c0,0-6-1.39-6.33,3.32,0,0-1.67-4.09-6.67-2.44,0,0-.83-3.3-5.17-3.3s-4.83,3.3-4.83,3.3c0,0-4.33-.82-4.67,3.44,0,0-5,0-3.67,3.71,0,0-4.5-.96-4.33,3.44,0,0-1.67-2.75-5-.82,0,0-1-2.61-4.33-1.1,0,0-2.5-3.16-5.5-1.51-3,1.65-2.5,3.71-2.5,3.71,0,0-3.83-1.88-3.83,1.61,0,0-3.67-2.98-5.33.73,0,0-3.67-2.06-5.33,1.65,0,0-2-2.89-4.83-1.1,0,0-1.67-2.29-4-1.28,0,0-1.33-2.02-3.5-1.06-2.17.96-1.33,2.89-1.33,2.89,0,0-3.83-.82-3.5,2.55,0,0-3.33-.59-3,2.28,0,0-2.17-2.32-5,0,0,0-2.3-2.38-4.65-.3,0,0-2.12-2.72-4.36,0,0,0-1.18-2.47-3.75-1.16-2.57,1.31-1.74,2.82-1.74,2.82,0,0-4.22-1.04-3.85,2.43,0,0-2.91-.95-4.16,2.26,0,0-1.16-2.25-3.49,0,0,0-.87-1.74-2.77-.71,0,0-1.07-1.65-2.82-.89,0,0-1.17-1.72-3.08-.34-1.92,1.38-.5,2.73-.5,2.73,0,0-2.33-.05-2,1.8,0,0-2.49-1.16-3.37,1.52,0,0-.96-1.66-2.88-.35,0,0-2.5-1.03-2.75,1.58,0,0-2.42-1.03-2.5,1.79,0,0-2.51-1.31-2.75,1.03,0,0-2.31-1.03-3.28,1.69,0,0-.46-1.75-2.8-.72,0,0-.92-2.06-2.58-.14,0,0,.08-1.86-2.25-1.03-2.33.83-.75,3.03-.75,3.03,0,0-3.11-1.47-2.6,2.25.51,3.73-3.74,1.53-3.07,5s-.07,5.12-.07,5.12l11.99,29.98,156.26,18.93Z"/>
        <path class="cls-16" d="M0,159.14s47.9-29.33,169.87-29.33,169.87,29.33,169.87,29.33v31.44H0v-31.44Z"/>
        <g>
          <path class="cls-27" d="M170.45,56.36c-.26.8.15,1.9-.12,2.7-.22.65-.88,1.07-1.11,1.76-.29.89-.22,1.92-.37,2.85-.17,1.02-.59,1.87-.47,2.97.11,1.07.68,1.86.94,2.85.24.91.13,1.94.37,2.86.49,1.88,1.08,2.77.67,4.96-.22,1.18-.37,1.85,0,3.08.3,1.03.75,1.91.67,3.08,2.1.22,1.66-5.54,2.22-7.01.5-1.33,1.54-2.33,1.93-3.74.44-1.57.12-2.84-.19-4.35-.25-1.22-.44-2.25-.05-3.45.49-1.52,1.58-2.67,2.2-4.11.65-1.52.73-3.64,0-5.04-.47-.89-.85-1.18-.65-2.34.2-1.15,2.82-4.34,3.59-3.26-1.18,2.06-2.83,2.75-1.76,5.52.44,1.14.43,2.28.05,3.48-.46,1.45-.56,2.34-.57,3.98.15-1.75,1.62-1.99,2.38-3.06.77-1.07.55-2.7,1.13-3.72.66-1.16,2.57-1.08,3.49-1.63,1.31-.79,2.59-2.25,2.82-4.17.27-.18.47-.2.72.01-.65,1.37-.79,3.19-1.79,4.15-1.02.98-2.26,1.12-3.28,1.89-1.31,1-.79,2.38-1.11,3.87-.37,1.72-1.74,2.27-2.75,3.1-1.33,1.09-1.38,2.96-1.31,4.91.42.09.54-.23.92-.42.73-.36,1.23-.43,2.02-.43.98,0,1.87.26,2.8-.26,1.8-1,1.74-3.36,3.19-4.57.98-.82,2.12-.4,3.18-.96,1.67-.88,1.13-2.27,1.86-3.93.39-.87,2.28-2.61,3.03-2.21-1.12,1.31-2.35,1.89-2.42,4.03-.03.74.1,1.5-.12,2.21-.21.69-.78,1.08-.91,1.84,1.44-1.64,3.57.01,4.98-1.73.52-.65.73-1.8,1.42-2.2.62-.37,1.6.02,2.28-.29,1.47-.65,2.58-3.28,2.9-5.18.23-1.36.12-2.65.77-3.83.14-.02.57.06.72.13.08,1.83-.89,3.8-1.19,5.59-.35,2.13-.21,3.62-1.96,4.46-1.46.7-2.17,1.09-3.34,2.44-1.38,1.59-2.62,2.64-4.52,2.39-1.25-.17-2.51-.31-3.75-.41-1.62-.13-1.89,1.22-2.54,2.76-.54,1.28-1.76,1.92-2,3.3-.23,1.33.48,2.59-.67,3.23-1.07.6-2.35-.41-3.46-.37-1.12.03-2.36.29-2.94,1.74-.25.64-.24,1.08-.21,1.86.05,1.31.32,2.87.05,4.08-.06.29-.43.46-.5.86,1.45-.23,2.76-1.98,4.2-2.46,1.97-.65,3.87.13,5.44-1.99.85-1.15.81-2.37,1.4-3.51.51-.99,1.26-.73,1.97-.98,1.32-.46,1.4-2.2,2.59-2.7.81-.34,1.76-.34,2.58-.6-.32,1.37-.81,1.44-1.69,2.11-.85.65-1.51,1.92-2.36,2.52-.58.41-1.25.27-1.69,1.08-.34.62-.35,1.24-.76,1.83,1.47-1.23,2.52-.42,4.07-.6,1.16-.14,1.81-1.38,2.78-2.08,1.39-1,2.62-1.03,3.87.21-.93.26-1.94.24-2.79.8-.92.61-1.55,1.92-2.47,2.47-1.04.64-2.47.23-3.58.31-1.32.1-2.02,1.23-3.15,1.99-1.84,1.24-4.17,1.04-5.9,2.5-.6.51-.99,1.2-1.61,1.68-.48.37-.74.07-.91.97-.22,1.18.63,1.26.79,2.09.34,1.77-1.72,3.25-2.64,4.03-.75.64-1.37.96-1.74,2.09-.25.77-.12,1.26-.33,2-1.26-.31-.65,1.94-.6,2.75.05.81-.08,1-.33,1.7-.25.7-.5,1.33-.73,2.07.33-1.31,2.74-1.7,3.56-2.2,1.33-.81,1.57-1.35,2.04-2.99.31-1.09.78-1.96,1.76-1.71-.52,1.64-1.04,3.32-1.65,4.96-.56,1.52-1.68,2.26-2.59,3.45.71-.08,1.48-1.28,2.05-.35-.8.61-.1,1.51-.46,2.21-.31.61-1.1.41-1.49.86-.77.9-.7,2.84-.74,4.07-.06,1.75.2,3.45.1,5.2-.08,1.37.24,1.6.48,2.75.19.92,0,1.68.31,2.59.43,1.23,1.09,2.77,1.72,3.86.8,1.37,1.1,1.96,1.44,3.63.12.6.19,1.22.53,1.71.44.64,1.09.67,1.43,1.5.34.82.13,2.05.37,2.82l-.19-.31c.2.13.34.08.44.37-.76,1.62-2.8,1.05-4.04,1.29-3.33.66-6.39,1.04-9.85.57-3.29-.44-7.19-1.95-10-3.35l.09.06c.28-.58.39-1.53.63-2.26.34-1.01,1.06-1.62,1.41-2.57.64-1.73,1.04-3.7,1.63-5.46.29-.88,1.01-1.59,1.41-2.41.5-1.03.62-1.99.66-3.22.04-1.13-.05-2.27,0-3.4.06-1.39.48-2.45.85-3.73.42-1.42,1.3-3.55,1.32-5.2,0-1.06-.17-1.96-.09-3.09.33-4.58-.24-9.16-.1-13.73.08-2.6-.1-5.88-.57-8.42-.13-.72-.38-1.98-.7-2.56-.59-1.05-1.42-.78-2.31-1.06-2.1-.64-3.95-2.98-5.65-4.64-.55-.54-1.1-.99-1.76-1.3-.68-.32-1.71-.09-2.3-.51-.74-.54-.86-2.52-.94-3.56-.17-2.29-1.45-3.62-3.25-4.2-1.86-.59-3.14.16-4.27-2.25-.36-.76-.53-1.8-1.06-2.35l.09.12c.3-.09.76-.16,1.12-.23.14,3.31,2.99,2.94,4.81,3.68-.73-2.04,1.21-3.22-.23-5.26-1.04-1.49-2.34-2.13-1.73-4.49.22-.07.6-.08.82,0-.54,2.88,2.03,2.85,2.46,5.25.18,1.02-.17,2.18-.09,3.16.13,1.42.89,2.32,1.79,2.95.93.65,1.15,1.28,1.81,2.24.07.02.07-.09.14-.09.09.97.48,1.24,1.23,1.08.05-.63-.22-1.23-.18-1.83.05-.79.47-1.11.57-1.86.2-1.55-1.22-2.01-.98-3.59.17-1.17,1.24-1.86,1.09-3.1-.14-1.15-1.15-2.51-1.51-3.58.16-.06.47-.05.64,0,.26,1.39,1.43,2.02,1.43,3.64,0,1.55-1.16,2.46-.12,3.99.21-1.49,2.59-1.5,3.23-2.75.64-1.23.25-2.45,0-3.67-.28-1.31.04-1.52.47-2.6.34-.85.26-1.61.29-2.58.22-.07.61-.08.82,0-.25.99-.22,1.89-.37,2.9-.09.58-.37.93-.37,1.54,0,.78.42,1.38.57,2.1.4,2-.58,3.72-1.68,4.96-1.09,1.22-1.33,2.03-1.62,3.83-.26,1.67-1.51,3.36.17,4.41.67.42,1.22.44,1.84,1.01.55.51.86.66,1.48.93.97.41,1.62,1.62,2.8,1.22.91-.31,1.72-1.65,1.8-2.93.08-1.24-.51-1.35-.77-2.37-.36-1.43.37-2.38.98-3.38,1.14-1.88,2.25-4.02,2.17-6.55-.06-1.83-1.22-3.3-1.15-5.19.04-.94.35-2.63,1.31-2.25-.85,1.08-.75,2.02-.18,3.28.68,1.5,1.18,2.55.85,4.38.13.05.26.01.38-.1"/>
          <path class="cls-23" d="M169.6,26.74c-.57-.46-1.45-.31-1.29.9-.37-.09-.87.15-1.24.06.03.26-.07.62-.04.87-.32-.09-.77.15-1.09.06-.06.19-.04.49-.04.69-.17.11-.35-.04-.52.06-.02.11.02.42-.04.5-.75.06-2.12-.44-2.26.74-.76-.04-1.77-.24-1.77.94-.04-.02-.42-.08-.59-.14.1.67-.1.73.35,1.23-.35,2.37-2.04.93-3.46,1.18-.04.18-.01.33-.05.51-.53-.53-1.01-.43-1.13.51-.88-.87-1.35.56-2.36.08,0,.23-.03.48-.03.71-.39.13-.78.45-1.09.9.21.11.41.32.57.41-.69.16-1.43.84-.64,1.68-.74.25-.85.99-.13,1.49-1.13.14-1.81.7-3.08.38,0,.24-.2.72-.19,1.05-.38-.29-.99-.5-1.49-.3.03.25-.05.6-.02.84-.78-.74-1.95-.78-2.09.65-.39-.4-.75-.24-1.16-.4.02.28-.18.74-.15,1.09-1.79-.61-1.66,1.46,0,1.17-1,1.62,1.45,1.25-.19,2.66-.87.75-3.29-.12-3.35,1.37-.26-.21-.81-.18-1.09-.32.03.25-.05.58-.04.84-.67-.56-1.52-.46-1.4.76-.42-.32-.76-.05-1.1-.08.11.3.08.53.23.86-.5-.25-.68.07-1.08.12.07.9.68,1.32,1.4,1.22-.1.14-.17.36-.3.52.27.2.75.95.98,1.13-.78.03-1.05.86-1.55,1.01-.89.25-1.78-.52-2.65-.11.05.97.32,1.99,1.24,2.02-.48.05-.78.46-1.15.75.58.9,1.7,1.92,2.28,2.62.42.51,1.2,1.66,1.96,1.16.52,1.71,2.66.72,3.49.26.9-.49,3.57-1.31,3.92-2.5.12,0,.1.29.25.13.2-.67.18-1.12-.25-1.64.5.37.82.94.84,1.66.08.12.28-.03.38.05.02.15.04.31.04.46.83.29,2.54.21,2.27-1.35.66.03,1.04.62,1.76.52.04.25.06.44.07.71.18.07.51.08.67.09,0,.16.02.31.04.46,2.49.64,1.15-3.73,2.92-4.18.39.49.93.38,1.4-.18-.15.9.09,1.63.89,1.45.02.65.04,1.1-.35,1.66,1.32.26,1.06,1.39.66,2.56.51.34.87.54,1.43.78-.14.27-.19.82-.35,1.1.63.18,2.66,1.43,2.43-.53,1.01.12,2.95-1.91,2.75-3.16.58-.25.66-.38,1.08-.85.09-.11.52-.49.73-.82.44,1.01.49,2.69,1.42,3.01-.25.77-.43,1.71-.39,2.57.36.39,1.05.49,1.52.5-.03,1.15.83,1.23,1.6.76-.61-2.12,1.25-1.9.88-3.61.5-.09.98-.23,1.47-.45-.03-.5.1-.89.11-1.28-.03.19-.05.66-.04.85-.07-.84.57-1.52.42-2.53.39.34.67.47.91.88.48,0,.95-.21,1.34-.61.07.18.06.37-.02.56.21-.14.69-.1,1.02-.58.25.74.25.88.87,1.03,0,.2,0,.41.04.61,1.33.05,2.17.95,3.07-1,.69.58,1.18-.02,1.54-.92.24.75.81,1.09,1.42,1,.03.17,0,.33-.08.46.25-.08.63.06.89.02.47,1.54-1.35,1.63-2.01,2.38.33.53.86.89,1.44,1.01.07.22.06.44,0,.66,1.34.41,4.4-2.28,4.84-3.82.81.58,2.37.24,3.3.51-.3,1.24.54,1,.96,1.94.3.66-.18,1.23.35,1.97-1.26,2.18-1.42,4.09,1.15,4.52-.17.12-.22.28-.13.48,1.13.6,2.06.55,3.08,1.27.41.29,1.29,2.78,1.52.35.28.05.78-.2,1.09-.1,0-.84.29-1.51.59-2.26.6.13,1.11-.17,1.39-.86.43.26.95.12,1.38.27.02-.45.25-.96.19-1.45.38.53.78,1.01,1.2,1.47,1.56-1.41-1.46-3.75.07-5.79.73.12,1.26.83,1.64,1.62.77-.57,1.29-2.98.51-3.84,1.26.02,1.42,1.29,2.09,2.29.14-.25.56-.46.7-.68.64.67,2.18,1.68,3.04,1.69.36-.83.38-1.87.04-2.72.62.09,2.1.58,2.52-.18.41-.75.1-1.54-.56-1.83,1.67-1.57-2.56-3.58-3.51-3.24-.32-1.74-1.75-1.37-2.11-3.15,3.28-1.72-.58-3.24-1.98-3.61,0-1.07.15-2.74-.54-2.86.23-.8-5.07-3.46-5.91-1.94-.62-.62-1.39-.41-2.1-.29,1.92-1.74-.54-3.95-1.62-4.63-2.41-1.5-4.75-.23-7.4-.73.7-.83,1.09-1.9.23-2.49.21-.21.38-.71.62-.91-1.7-.91-3.29-2.05-5.21-2.34-.88-.14-4.04-.25-4.76.52.33-1.25.72-2.68,1.8-2.49-.8-.77-2.91-1.45-3.93-1.47.01-1.43-1.35-3.69-2.09-1.58-.78-.09-5.93-1.31-5.95-.23"/>
          <path class="cls-19" d="M156.74,68.55c-.46-.53-1.13-1.01-1.82-.9-.02.17,0,.34-.05.51-.32-.34-.61-.16-.94-.33-.06.12-.02.38-.04.51-.22-.02-.45-.11-.66-.14-.02.1-.03.21-.05.31-.6-.36-1.27-.32-1.27.72-.78-.69-1.86-.32-1.51,1.14.18.04.33.18.5.23-.59-.1-.82.14-1.11.7-1.65-.06-2.99.44-4.8.59-.76.06-2.6-.39-2.23,1.42-.09,0-.62-.02-.69-.04-.01.16-.03.32-.05.47-.65-.25-1.81-.48-2.5-.34.01.39-.23.82-.18,1.25-.62,0-.83.22-.74.97-.7.15-.22.02-.64.66.18,0,.47.09.68.11-.1.19-.17.48-.25.68.96-.19,1.2,1.08,2.23.8.14.81.72,1.12,1.25.73.29,1.14,1.31,1.13,2,.6.02,0,.03.46.03.48.04-.07.28-.39.37-.49-.09,1.22.59,1.96,1.28.93-.17,1.37.92,1.33,1.71,1.27-.16,1.94,2.24,1.95,2.7.4-.14.87.64,2.97,1.25,2.95.13.82.65,1.09,1.28.93-.85,2.09,2.74,3.16,2.13-.44.44,2.41,1.48-2.24,1.7-2.5.89,1.46,3.82,4.44,3.23-.54.54,1.28,1.63.15,1.44-1.09.69.19,1.59,1.29,2-.1.29.8.79.93,1.24.14,1.09.4.92,1.85.71,3.05,1.26.42,3.17-.18,1.84-2.43.14.21.38.36.54.54.2-.64.16-1.41.03-2.04.8.35,2.11,1.38,2.92.63.32-.3,1.06-2.48,1.05-3-.09-2.65-5.32-6.38-5.51-4.73-.12-.84-.65-1.31-1.28-1.18-.08.21-.14.43-.17.66-.34-.51-.83-.91-1.36-.97-.37-.86-.77-2.21-1.75-1.7-.07-.86-1.92-1.38-2.63-1.32-.6-.45-1.54-.48-2.14.08"/>
          <path class="cls-24" d="M200.1,77.27c.37.43.91.81,1.46.73.01-.14,0-.27.04-.41.26.28.49.13.76.26.05-.09.01-.3.03-.41.17.02.36.09.53.11.01-.08.03-.17.04-.25.48.29,1.03.26,1.02-.58.62.56,1.49.26,1.22-.91-.15-.03-.27-.14-.4-.18.47.08.66-.11.89-.56,1.33.04,2.41-.36,3.86-.47.61-.05,2.09.31,1.8-1.14.07,0,.5.02.56.03.01-.13.02-.25.04-.38.52.2,1.46.38,2.01.27,0-.32.18-.66.15-1.01.5,0,.67-.17.59-.78.56-.12.18-.02.51-.53-.15,0-.38-.07-.55-.09.08-.16.13-.38.2-.55-.77.15-.96-.87-1.8-.64-.12-.65-.58-.9-1.01-.59-.24-.92-1.05-.91-1.61-.48-.01,0-.03-.37-.03-.39-.03.05-.23.31-.3.4.07-.98-.48-1.57-1.03-.75.14-1.11-.74-1.07-1.38-1.02.13-1.56-1.8-1.57-2.17-.32.12-.7-.52-2.39-1-2.37-.1-.66-.52-.88-1.03-.74.69-1.68-2.2-2.54-1.71.36-.35-1.94-1.19,1.8-1.37,2.01-.72-1.17-3.08-3.57-2.6.43-.44-1.03-1.31-.12-1.16.87-.55-.15-1.28-1.04-1.61.08-.23-.65-.63-.75-1-.12-.88-.32-.74-1.49-.57-2.45-1.01-.34-2.55.15-1.48,1.95-.12-.17-.3-.29-.43-.44-.16.52-.13,1.13-.02,1.65-.64-.29-1.7-1.11-2.35-.5-.26.25-.86,1.99-.84,2.41.07,2.13,4.28,5.14,4.44,3.81.09.68.52,1.06,1.03.95.07-.17.11-.35.14-.53.28.41.67.73,1.1.78.3.7.62,1.78,1.41,1.37.06.69,1.54,1.11,2.12,1.06.48.36,1.24.39,1.72-.06"/>
        </g>
        <g>
          <g>
            <g>
              <path class="cls-9" d="M151.32,102.66c-.43-.19-.92-.3-1.35-.45-1.01-.34-1.48-.75-2.42-1.26-1.01-.55-2.48-1.01-3.19-1.94-.69-.91-1.02-2.24-.74-3.36.02-.09.51,2.63,1.95,3.68.07.05.15-.02.12-.1-.25-.55-.7-1.83-.1-2.87.04-.08.04,2.4,1.84,3.65.06.04.15-.02.12-.09-.15-.43-.4-1.41,0-2.2.04-.08.26,2.24,1.92,3.22.07.04.15-.04.11-.11-.19-.33-.45-.94-.25-1.63.02-.08.65,1.52,1.07,1.95.3.31.65.57,1.03.79.19.11.41.25.62.31.25.07.45.12.65.29.21.17.37.39.54.6.04.06.09.11.11.18.07.21-.11.43-.31.49s-.43.02-.64-.03c-.04-.14-.09-.27-.16-.39-.21-.36-.53-.59-.9-.75Z"/>
              <path class="cls-25" d="M152.66,102.4c-.31-.31-.69-.56-1.02-.82-.75-.63-1.22-1.31-1.85-2.05-.69-.8-1.73-1.24-2.17-2.88-.27-1.01.12-1.89.73-2.75.05-.07-.42,2.42.47,3.79.04.06.14.03.14-.05-.03-.55,0-1.8.85-2.49.06-.05-.76,2.07.38,3.73.04.06.13.03.13-.04.02-.42.12-1.34.71-1.89.06-.05-.51,2,.59,3.39.05.06.14.02.13-.06-.06-.35-.08-.95.32-1.48.05-.06.06,1.51.28,2.02.15.37.37.7.62,1.01.13.16.27.34.43.46.19.14.34.25.46.46.12.21.19.45.26.69.02.06.04.13.03.19-.01.2-.23.33-.43.32-.2-.01-.37-.12-.54-.23.01-.13,0-.26-.01-.39-.06-.38-.26-.68-.52-.93Z"/>
            </g>
            <path class="cls-10" d="M136.25,120.85s-.61,1.45-3.77,2.47c0,0-.77.32,0,1.24.55.66,1.47,2.77,1.95,3.91.17.4.49,1.09.9,1.23.43.14.71.1,1.03.85h2.37s-.79-.73-2.03-1.3c-.67-.31-1.02-.95-1.37-1.6-.41-.77-.81-1.72-1.16-2.86-.05-.17.04-.34.2-.41.82-.34,2.85-1.36,3.37-3.52,0,0-.81-.28-1.48,0Z"/>
          </g>
          <path class="cls-6" d="M158.79,105.7c-1.03-.45-3.02-1.24-4.54-2.63,0,0-1.32-.26-1.85.21l-3.26-.14s.42,2.38,2.28,1.91c0,0-.86,1.16-1.14,4.13-.19,2.06-1.8,3.28-3.53,3.87-1.06.36-3.27-.24-4.38-.34-2.41-.21-4.9-3.19-9.36-.26-.01,0-.03.02-.04.03-.79-.45-1.25-1.31-1.63-2.6,0,0-1.78,1.25-.11,2.21,0,0-1,.22-1.06-.13,0,0-.08,1.86,1.59,1.61-.16.02-1.75,2.5-1.82,2.73-.22.76.13,2.68.16,3.47.03.79-.08,2.02-.68,2.54-.34.29-1.13.74-1.2,1.18-.03.17.02.34.06.51.42,1.6.97,1.17.77,5.42-.02.42.12.82.43,1.11.36.32.61.78.49,1.42h2.18c-.23-1.1-.57-1.07-1.4-1.77-.27-.22-.37-.36-.51-.68-.09-.21-.16-1.69-.17-1.91-.03-1.13-.06-1.97-.09-3.1,0-.24,0-.49.1-.7.14-.27.39-.51.68-.55,5.03-.72,4.27-2.82,6.22-2.89,2.34-.08,3.89.54,6.27.5.64,0,.55-.06,1.19-.11.84-.07,1.12-.02,1.67.65.21.26.56.56.71.87.11.24.43.64.48.91.14.72.65,1.45.69,2.19.06,1.42-.36,2.74-.57,4.14-.03.2-.06.4-.01.6.04.16.13.3.21.44.22.4.23.95.23,1.4h2.35c-.06-.77-.81-1.09-1.25-1.75-.19-.29-.24-.68-.34-1.01-.1-.32.08-.96.08-1.29,0-1.35.69-3.15,1.06-3.91.34-.7.9-1.25,1.27-1.93.47-.86,1.37-1.43,1.81-2.27.41-.79.87-1.64,1.02-2.53.13-.77.22-1.55.3-2.33.14-1.42.25-2.62.24-4.11,0-1.27.18-2.13.22-2.65-1.81-.14-1.7-1.11-1.7-1.11,0,.16.16.29.38.4.7.34,1.52.29,2.22-.03.51-.24,1.25-.47,2.11-.39,1.66.14,1.69-1.11,1.17-1.34Z"/>
          <path class="cls-20" d="M151.92,130.85h2.03c0-.69-.78-1.19-.98-1.41-.4-.45-.66-.54-.8-1.13-.29-1.26-.67-3.29-.52-4.51.2-1.57,1.27-3.53,1.27-3.53-1.39,1.76-2.71,3.66-2.71,3.66l.85,5.14c.06.31.23.57.44.81.26.3.38.65.42.97Z"/>
          <path class="cls-5" d="M147.29,123.18c.12.63.52,1.28.64,1.92.24-.5.2-1.12.07-1.58-.23-.85-.4-2.56-2.11-4.1-1.71-1.54-3.76-.97-5.98-1.14-2.22-.17-4.21-.46-5.58,1.98-.81,1.44-1.81,2.3-2.49,2.78,3.83-.85,3.34-2.63,5.13-2.69,2.34-.08,3.89.54,6.27.5.64,0,.55-.06,1.19-.11.84-.07,1.12-.02,1.67.65.21.26.56.56.71.87.11.24.43.64.48.91Z"/>
        </g>
        <g>
          <path class="cls-29" d="M117.91,103.09c.74-1.32,2.89-1.12,4.27-2.32,1.37-1.2.55-2.51.55-2.51.26,1.63-1.39,2.32-1.39,2.32.89-.92.09-2.05.09-2.05.49,1.67-1.26,2.39-1.26,2.39.66-.88.05-1.77.05-1.77.26,1.48-1.27,2.26-1.27,2.26.58-.67-.03-1.88-.03-1.88,0,0,.13,1.63-1.07,2.53-.03.02-.05.04-.07.06,0,0,0,0,0,0,0,0,.48-1.24,0-1.86,0,0,.09.99-.28,1.48-.37.49-.71,1.71-.75,2.38,0,0,0,0,0,0-.06.25-.09.45-.1.58-.25.08-.52.11-.55.11-.03,0-.3-.02-.55-.1-.02-.13-.05-.34-.11-.58,0,0,0,0,0,0-.05-.67-.4-1.89-.78-2.37-.38-.48-.3-1.47-.3-1.47-.48.63,0,1.86,0,1.86h0s-.05-.04-.07-.06c-1.21-.89-1.1-2.52-1.1-2.52,0,0-.59,1.21,0,1.88,0,0-1.53-.76-1.29-2.25,0,0-.6.9.07,1.77,0,0-1.76-.7-1.29-2.37,0,0-.79,1.13.11,2.04,0,0-1.65-.68-1.41-2.31,0,0-.81,1.32.58,2.5,1.38,1.18,3.53.96,4.29,2.27.42.73.51,1.14.51,1.37-.33.06-.71.33-.9.86,0,0-1.41-.59-2.32-.23-.91.36-1.61.18-1.61.18,0,0,.17,1.46,1.64,1.66s1.75-.45,1.75-.45c0,0-.32-1.16-1.99-.87,0,0,1.73-.69,2.15.76,0,0,.31.88.71,1.25.44.41.57,1.31.68,1.73.09.34.11,1.31.66,1.65.13.08.42.06.59.06h0s0,0,0,0c0,0,0,0,0,0h0c.17,0,.5,0,.63-.08.55-.34.53-1.3.61-1.64.1-.42.22-1.32.66-1.74.39-.37.7-1.25.7-1.25.4-1.46,2.14-.78,2.14-.78-1.67-.27-1.98.89-1.98.89,0,0,.28.65,1.76.43s1.62-1.68,1.62-1.68c0,0-.7.18-1.62-.17-.91-.35-2.32.26-2.32.26-.2-.53-.58-.79-.91-.85,0-.23.08-.65.49-1.38Z"/>
          <path class="cls-22" d="M118.18,112.22c-.45-.97-.02-4.01-.02-4.01,0,0-.45,1.25-.45,1.61,0,.35-.07,1.86-1.58,1.87s-1.71-1.54-1.71-2.29c0-.75-.42-1.42-.42-1.42,0,0-.29,1.13-.2,1.63.09.5-.19,1.73-2.41,1.95-3.33.33-4.05.99-5.33,2.08-1.29,1.09-1.01,3.5-.75,5,.26,1.5-.17,2.86-.28,4.19-.12,1.34-.32,2.21-.32,2.88s.13,1.13.09,1.63c-.04.5.08,3.87,0,4.54-.08.67-.29,1.09-.49,1.38-.21.29-.21.56-.21.56h1.88s0-.94-.05-1.32c-.04-.38.2-.72.12-1.13-.09-.41.04-4.58.41-5.62.37-1.05.78-2.01.78-3.22,0-1.21.99-2.09,2.67-.51,0,0-.6-2.39.31-3.99,0,0-.53,3.16.53,4.7,1.05,1.54,1.05,2.25,1.02,3.08s.09,1.17.22,1.42c.13.25.17.83-.08,1.38-.25.54.05,1.38.18,1.58s-.04,1.25-.08,1.54c-.04.29-.21.33-.04.79.17.46-.38.88-.5,1.13-.12.25-.28.88-.28.88h2.09s-.09-1.14-.13-1.43.16-.54.16-1c0-.46,0-1.5,0-1.92,0-.42.46-.63.45-1.17,0-.54-.21-1.16-.13-1.58s.94-2.84,1.03-3.3c.08-.46.53-2.13.53-2.13,0,0,.67.16.96.12,0,0,.43,1.79.72,2.79.3,1,.34,2,.35,2.34,0,.33-.16.92.17,1.21.34.29.38,1.79.39,2.17,0,.38-.29,1.17.09,1.5.38.33.61.96.54,1.29s.02,1.08.02,1.08h1.92s-.26-1.43-.63-1.63c-.38-.21,0-.63,0-.83,0-.21-.42-.79-.63-1.58-.21-.79-.13-1.38-.22-1.75-.09-.38.33-1.09.12-1.5s-.43-2.33-.43-2.96c0-.63.27-4.59.27-4.59,0,0,1.57-2.76-.58-7.42Z"/>
          <path class="cls-33" d="M110.2,118.03s-3.59.82-3.51,3.83c.04,1.46-.04,2.49.08,2.99.25-.72.46-1.45.45-2.31,0-1.21.99-2.09,2.67-.51,0,0-.6-2.39.31-3.99Z"/>
        </g>
        <path class="cls-26" d="M204.73,132.33s0-2.3-3.04-3.22c0,0,2.58-.37,4.15,2.21,0,0-.88-3.73-3.73-4.79,0,0,3.82.37,5.11,4.56,0,0,0-2.67-.6-3.64,0,0,1.38,1.8,1.47,3.36,0,0,.74-4.19,2.67-5.34,0,0-1.15,2.67-1.47,4.61,0,0,.49-1.57,3.84-2.03,0,0-2.68,1.43-3.15,3.18,0,0,2.58-1.84,5.57-1.47,0,0-3.73.69-4.61,2.58-.88,1.89-5.71,2.03-6.22,0Z"/>
        <path class="cls-21" d="M183.89,130.73s-.09-2.49-4.2-3.6c0,0,3.95.09,5.06,2.23,0,0,.34-4.03-1.37-5.23,0,0,2.74,2.23,2.83,4.37,0,0,.69-4.29,3.09-5.4,0,0-1.29,3.6-1.37,5.32,0,0,1.63-2.61,5.49-2.77,0,0-2.49,1.91-3.09,3.62,0,0,3-2.83,6.18-2.36,0,0-2.57,1.5-3.69,3.82-1.11,2.32-8.32,4.12-8.92,0Z"/>
        <path class="cls-28" d="M92.59,134.72s-.07-2.13-3.6-3.09c0,0,3.38.07,4.33,1.91,0,0,.29-3.45-1.18-4.48,0,0,2.35,1.91,2.42,3.75,0,0,.59-3.67,2.64-4.63,0,0-1.1,3.09-1.18,4.55,0,0,1.4-2.24,4.7-2.37,0,0-2.13,1.63-2.64,3.1,0,0,2.57-2.42,5.29-2.02,0,0-2.2,1.29-3.16,3.27s-7.13,3.53-7.64,0Z"/>
        <path class="cls-17" d="M243.31,134.13s-.07-2.13-3.6-3.09c0,0,3.38.07,4.33,1.91,0,0,.29-3.45-1.18-4.48,0,0,2.35,1.91,2.42,3.75,0,0,.59-3.67,2.64-4.63,0,0-1.1,3.09-1.18,4.55,0,0,1.4-2.24,4.7-2.37,0,0-2.13,1.63-2.64,3.1,0,0,2.57-2.42,5.29-2.02,0,0-2.2,1.29-3.16,3.27-.96,1.98-7.13,3.53-7.64,0Z"/>
        <path class="cls-31" d="M234.28,77.32c-.91-.62-2.25-.65-3.12.4-.87-1.05-2.21-1.02-3.12-.4-.91.62-1.49.58-1.49.58,1.02.29,1.34-.18,2.5-.44,1.16-.25,2.1.87,2.1.87,0,0,.94-1.12,2.1-.87,1.16.25,1.49.73,2.5.44,0,0-.58.04-1.49-.58Z"/>
        <path class="cls-18" d="M243.49,82.49c-.91-.62-2.25-.65-3.12.4-.87-1.05-2.21-1.02-3.12-.4-.91.62-1.49.58-1.49.58,1.02.29,1.34-.18,2.5-.44,1.16-.25,2.1.87,2.1.87,0,0,.94-1.12,2.1-.87,1.16.25,1.49.73,2.5.44,0,0-.58.04-1.49-.58Z"/>
        <path class="cls-8" d="M248.1,71.12c-.91-.62-2.25-.65-3.12.4-.87-1.05-2.21-1.02-3.12-.4s-1.49.58-1.49.58c1.02.29,1.34-.18,2.5-.44,1.16-.25,2.1.87,2.1.87,0,0,.94-1.12,2.1-.87,1.16.25,1.49.73,2.5.44,0,0-.58.04-1.49-.58Z"/>
        <path class="cls-14" d="M257.23,75.87c-.91-.62-2.25-.65-3.12.4-.87-1.05-2.21-1.02-3.12-.4-.91.62-1.49.58-1.49.58,1.02.29,1.34-.18,2.5-.44,1.16-.25,2.1.87,2.1.87,0,0,.94-1.12,2.1-.87,1.16.25,1.49.73,2.5.44,0,0-.58.04-1.49-.58Z"/>
        <path class="cls-11" d="M5.58,4.42c0,.22-.18.41-.41.41s-.41-.18-.41-.41.18-.41.41-.41.41.18.41.41Z"/>
        <path class="cls-11" d="M41.5,33.4c0,.22-.18.41-.41.41s-.41-.18-.41-.41.18-.41.41-.41.41.18.41.41Z"/>
        <path class="cls-11" d="M70.1,16.48c0,.22-.18.41-.41.41s-.41-.18-.41-.41.18-.41.41-.41.41.18.41.41Z"/>
        <path class="cls-11" d="M80.43,48.67c0,.22-.18.41-.41.41s-.41-.18-.41-.41.18-.41.41-.41.41.18.41.41Z"/>
        <path class="cls-11" d="M14.5,59.74c0,.22-.18.41-.41.41s-.41-.18-.41-.41.18-.41.41-.41.41.18.41.41Z"/>
        <path class="cls-11" d="M11.84,30.74c0,.22-.18.41-.41.41s-.41-.18-.41-.41.18-.41.41-.41.41.18.41.41Z"/>
        <path class="cls-11" d="M46.17,72.48c0,.22-.18.41-.41.41s-.41-.18-.41-.41.18-.41.41-.41.41.18.41.41Z"/>
        <path class="cls-11" d="M59.17,51.74c0,.22-.18.41-.41.41s-.41-.18-.41-.41.18-.41.41-.41.41.18.41.41Z"/>
        <path class="cls-11" d="M91.17,82.78c0,.22-.18.41-.41.41s-.41-.18-.41-.41.18-.41.41-.41.41.18.41.41Z"/>
        <path class="cls-11" d="M113,62.35c0,.22-.18.41-.41.41s-.41-.18-.41-.41.18-.41.41-.41.41.18.41.41Z"/>
        <path class="cls-11" d="M110.61,30.74c0,.22-.18.41-.41.41s-.41-.18-.41-.41.18-.41.41-.41.41.18.41.41Z"/>
        <path class="cls-11" d="M152.49,21.48c0,.22-.18.41-.41.41s-.41-.18-.41-.41.18-.41.41-.41.41.18.41.41Z"/>
        <path class="cls-11" d="M122.34,12.4c0,.22-.18.41-.41.41s-.41-.18-.41-.41.18-.41.41-.41.41.18.41.41Z"/>
        <path class="cls-11" d="M135.84,36.81c0,.22-.18.41-.41.41s-.41-.18-.41-.41.18-.41.41-.41.41.18.41.41Z"/>
        <path class="cls-11" d="M219.84,12c0,.22-.18.41-.41.41s-.41-.18-.41-.41.18-.41.41-.41.41.18.41.41Z"/>
        <path class="cls-11" d="M261.84,26.33c0,.22-.18.41-.41.41s-.41-.18-.41-.41.18-.41.41-.41.41.18.41.41Z"/>
        <path class="cls-11" d="M305.17,13.22c0,.22-.18.41-.41.41s-.41-.18-.41-.41.18-.41.41-.41.41.18.41.41Z"/>
        <path class="cls-11" d="M231.57,40.07c0,.22-.18.41-.41.41s-.41-.18-.41-.41.18-.41.41-.41.41.18.41.41Z"/>
        <path class="cls-11" d="M295.5,57.07c0,.22-.18.41-.41.41s-.41-.18-.41-.41.18-.41.41-.41.41.18.41.41Z"/>
        <path class="cls-11" d="M283.24,83.51c0,.22-.18.41-.41.41s-.41-.18-.41-.41.18-.41.41-.41.41.18.41.41Z"/>
        <path class="cls-11" d="M323.17,51.33c0,.22-.18.41-.41.41s-.41-.18-.41-.41.18-.41.41-.41.41.18.41.41Z"/>
        <path class="cls-11" d="M300.5,33c0,.22-.18.41-.41.41s-.41-.18-.41-.41.18-.41.41-.41.41.18.41.41Z"/>
        <path class="cls-11" d="M259.12,50.92c0,.22-.18.41-.41.41s-.41-.18-.41-.41.18-.41.41-.41.41.18.41.41Z"/>
        <path class="cls-11" d="M40.69,12.81c0,.22-.18.41-.41.41s-.41-.18-.41-.41.18-.41.41-.41.41.18.41.41Z"/>
        <path class="cls-1" d="M195.76,24.26s16.33,12.32,17.12,11.11c.79-1.21-17.12-11.11-17.12-11.11Z"/>
        <path class="cls-3" d="M90.76,34.47s16.33,12.32,17.12,11.11c.79-1.21-17.12-11.11-17.12-11.11Z"/>
        <path class="cls-2" d="M60.71,64.38s16.33,12.32,17.12,11.11c.79-1.21-17.12-11.11-17.12-11.11Z"/>
        <path class="cls-4" d="M13.69,42.67s16.33,12.32,17.12,11.11c.79-1.21-17.12-11.11-17.12-11.11Z"/>
      </g>
    </g>
  </g>
</svg>