<?xml version="1.0" encoding="UTF-8"?>
<svg id="Layer_2" xmlns="http://www.w3.org/2000/svg" xmlns:xlink="http://www.w3.org/1999/xlink" viewBox="0 0 339.75 190.59">
  <defs>
    <style>
      .cls-1 {
        fill: #78936d;
      }

      .cls-2 {
        fill: url(#linear-gradient-3);
      }

      .cls-3 {
        fill: #a9c7a3;
      }

      .cls-4 {
        fill: #8fb187;
      }

      .cls-5 {
        fill: url(#linear-gradient-2);
        opacity: .43;
      }

      .cls-6 {
        fill: #5e744f;
      }

      .cls-7 {
        fill: url(#linear-gradient);
      }
    </style>
    <linearGradient id="linear-gradient" x1="169.87" y1="1.81" x2="169.87" y2="187.32" gradientUnits="userSpaceOnUse">
      <stop offset="0" stop-color="#e5ebbd"/>
      <stop offset="1" stop-color="#97e289"/>
    </linearGradient>
    <linearGradient id="linear-gradient-2" x1="169.87" y1="103.21" x2="169.87" y2="61.14" gradientUnits="userSpaceOnUse">
      <stop offset="0" stop-color="#5e744f"/>
      <stop offset=".99" stop-color="#aac279"/>
    </linearGradient>
    <linearGradient id="linear-gradient-3" y1="128.44" y2="71.12" xlink:href="#linear-gradient-2"/>
  </defs>
  <g id="OBJECTS">
    <g>
      <rect class="cls-7" width="339.75" height="190.59"/>
      <path class="cls-5" d="M0,110.69h339.75v-59.58c-11.23,5.23-26.27,12.16-31.73,14.33-9.13,3.63-15.54-2.96-29.88-11.19-14.34-8.23-14.33-8.44-25.14,0-10.81,8.44-18.52,2.9-29.86,0-11.33-2.9-19.33,4.23-26.78,6.23-7.45,2-36.55-12.67-41.22-15.64-4.67-2.98-28.67,17.64-34.01,18.76-5.34,1.12-30.66-6.45-38.49-9.35-7.82-2.9-37.51,18.9-42.32,16.9-3.6-1.49-28.14-15.43-40.34-22.39v61.94Z"/>
      <path class="cls-2" d="M0,76.64s37.15-18.27,41.15-17.22,28.67,17.58,30.67,17.22c2-.36,16-8.63,21.33-7.39,5.33,1.24,31.33,13.88,31.33,13.88,0,0,50.67-25.91,54.67-23.76,4,2.15,29.33,17.26,29.33,17.26,0,0,18.67-8.1,23.33-7.39,4.67.71,19.33,11.05,21.33,10.36s34-23.88,38-22.82c4,1.05,48.6,26.35,48.6,26.35v42.68H0v-49.17Z"/>
      <path class="cls-3" d="M0,95.29s97.85-6.45,173.15,11.68c0,0,85.19-14.56,166.6-4.86v88.48H0v-95.29Z"/>
      <path class="cls-4" d="M0,107.81s93.48-8.56,191.82,29.06v53.72H0v-82.78Z"/>
      <path class="cls-1" d="M0,140.48s132.35-30.67,339.75-14.67v64.78H0v-50.11Z"/>
      <path class="cls-6" d="M0,152.81s199.01-36.33,339.75-27v64.78H0v-37.78Z"/>
      <path class="cls-6" d="M19.57,130.67c-.89-2.97-1.77-5.85-2.66-8.66-.65.57-2.03,1.41-2.03,1.41l1.73-2.35c-1.14-3.58-2.06-6.27-2.23-6.27-.23,0-1.82,4.88-3.49,10.28l2.16,3.47s-1.27-1.14-2.54-2.24c-.95,3.08-1.89,6.21-2.59,8.61l3.39,5.44s-2.32-2.75-3.81-3.99c-.37,1.29-.74,2.66-.74,2.77,0,.58,4.85,5.56,6.91,6.83v8.98h1.41v-8.98c2.06-1.26,6.91-6.25,6.91-6.83,0-.24-.9-3.39-2.09-7.36-1.18,1.03-2.3,2.03-2.3,2.03l1.96-3.15Z"/>
      <path class="cls-6" d="M114.45,116.97c-.89-2.97-1.77-5.85-2.66-8.66-.65.57-2.03,1.41-2.03,1.41l1.73-2.35c-1.14-3.58-2.06-6.27-2.23-6.27-.23,0-1.82,4.88-3.49,10.28l2.16,3.46s-1.27-1.14-2.54-2.24c-.95,3.08-1.89,6.21-2.59,8.61l3.39,5.44s-2.32-2.75-3.81-3.99c-.37,1.29-.74,2.66-.74,2.77,0,.58,4.85,5.56,6.91,6.83v8.98h1.41v-8.98c2.06-1.26,6.91-6.25,6.91-6.83,0-.24-.9-3.39-2.09-7.36-1.18,1.03-2.3,2.03-2.3,2.03l1.96-3.15Z"/>
      <path class="cls-1" d="M43.79,119.38c-.59-1.98-1.18-3.89-1.77-5.76-.43.38-1.35.94-1.35.94l1.15-1.56c-.76-2.39-1.37-4.17-1.48-4.17-.15,0-1.21,3.25-2.32,6.84l1.44,2.31s-.85-.76-1.69-1.49c-.63,2.05-1.26,4.14-1.72,5.74l2.26,3.62s-1.54-1.83-2.53-2.66c-.24.86-.5,1.77-.5,1.85,0,.38,3.23,3.7,4.6,4.54v5.98h.94v-5.98c1.37-.84,4.6-4.16,4.6-4.54,0-.16-.6-2.26-1.39-4.9-.79.69-1.53,1.35-1.53,1.35l1.31-2.1Z"/>
      <path class="cls-1" d="M54.53,120.79c-.5-1.67-1-3.29-1.5-4.87-.37.32-1.14.79-1.14.79l.97-1.32c-.64-2.01-1.16-3.52-1.25-3.52-.13,0-1.02,2.75-1.96,5.78l1.22,1.95s-.72-.64-1.43-1.26c-.53,1.73-1.06,3.49-1.46,4.84l1.91,3.06s-1.3-1.54-2.14-2.24c-.21.72-.42,1.49-.42,1.56,0,.32,2.73,3.13,3.89,3.84v5.05h.79v-5.05c1.16-.71,3.89-3.51,3.89-3.84,0-.13-.51-1.91-1.17-4.14-.67.58-1.29,1.14-1.29,1.14l1.1-1.77Z"/>
      <path class="cls-4" d="M77.5,101.3c-.43-1.41-.84-2.79-1.27-4.13-.31.27-.97.67-.97.67l.83-1.12c-.54-1.71-.98-2.99-1.06-2.99-.11,0-.87,2.33-1.66,4.9l1.03,1.65s-.61-.54-1.21-1.07c-.45,1.47-.9,2.96-1.23,4.11l1.62,2.59s-1.11-1.31-1.82-1.9c-.17.61-.36,1.27-.36,1.32,0,.28,2.31,2.65,3.29,3.25v4.28h.67v-4.28c.98-.6,3.29-2.98,3.29-3.25,0-.11-.43-1.62-1-3.51-.56.49-1.1.97-1.1.97l.94-1.5Z"/>
      <path class="cls-4" d="M25.26,99.11c-.43-1.41-.85-2.79-1.27-4.13-.31.27-.97.67-.97.67l.83-1.12c-.55-1.71-.98-2.99-1.06-2.99-.11,0-.87,2.33-1.66,4.9l1.03,1.65s-.61-.54-1.21-1.07c-.45,1.47-.9,2.96-1.23,4.11l1.62,2.59s-1.11-1.31-1.82-1.9c-.17.61-.36,1.27-.36,1.32,0,.28,2.31,2.65,3.3,3.25v4.28h.67v-4.28c.98-.6,3.3-2.98,3.3-3.25,0-.11-.43-1.62-1-3.51-.56.49-1.1.97-1.1.97l.94-1.5Z"/>
      <path class="cls-3" d="M45.64,87.96c-.26-.86-.51-1.69-.77-2.51-.19.17-.59.41-.59.41l.5-.68c-.33-1.04-.6-1.81-.65-1.81-.07,0-.53,1.41-1.01,2.98l.63,1s-.37-.33-.74-.65c-.27.89-.55,1.8-.75,2.49l.98,1.57s-.67-.8-1.1-1.16c-.11.37-.22.77-.22.8,0,.17,1.4,1.61,2,1.98v2.6h.41v-2.6c.6-.37,2-1.81,2-1.98,0-.07-.26-.98-.61-2.13-.34.3-.67.59-.67.59l.57-.91Z"/>
      <path class="cls-3" d="M51.89,87.96c-.26-.86-.51-1.69-.77-2.51-.19.17-.59.41-.59.41l.5-.68c-.33-1.04-.6-1.81-.65-1.81-.07,0-.53,1.41-1.01,2.98l.63,1s-.37-.33-.74-.65c-.27.89-.55,1.8-.75,2.49l.98,1.57s-.67-.8-1.1-1.16c-.11.37-.22.77-.22.8,0,.17,1.4,1.61,2,1.98v2.6h.41v-2.6c.6-.37,2-1.81,2-1.98,0-.07-.26-.98-.6-2.13-.34.3-.67.59-.67.59l.57-.91Z"/>
      <path class="cls-3" d="M97.41,90.32c-.26-.86-.51-1.69-.77-2.51-.19.17-.59.41-.59.41l.5-.68c-.33-1.04-.6-1.81-.65-1.81-.07,0-.53,1.41-1.01,2.98l.63,1s-.37-.33-.74-.65c-.27.89-.55,1.8-.75,2.49l.98,1.57s-.67-.8-1.1-1.16c-.11.37-.22.77-.22.8,0,.17,1.4,1.61,2,1.98v2.6h.41v-2.6c.6-.37,2-1.81,2-1.98,0-.07-.26-.98-.6-2.13-.34.3-.67.59-.67.59l.57-.91Z"/>
      <path class="cls-3" d="M103.15,91.23c-.26-.86-.51-1.69-.77-2.51-.19.17-.59.41-.59.41l.5-.68c-.33-1.04-.6-1.81-.65-1.81-.07,0-.53,1.41-1.01,2.98l.63,1s-.37-.33-.74-.65c-.27.89-.55,1.8-.75,2.49l.98,1.57s-.67-.8-1.1-1.16c-.11.37-.22.77-.22.8,0,.17,1.4,1.61,2,1.98v2.6h.41v-2.6c.6-.37,2-1.81,2-1.98,0-.07-.26-.98-.6-2.13-.34.3-.67.59-.67.59l.57-.91Z"/>
      <path class="cls-3" d="M145.69,94.76c-.26-.86-.51-1.69-.77-2.51-.19.17-.59.41-.59.41l.5-.68c-.33-1.04-.6-1.81-.65-1.81-.07,0-.53,1.41-1.01,2.98l.63,1s-.37-.33-.74-.65c-.27.89-.55,1.8-.75,2.49l.98,1.57s-.67-.8-1.1-1.16c-.11.37-.22.77-.22.8,0,.17,1.4,1.61,2,1.98v2.6h.41v-2.6c.6-.37,2-1.81,2-1.98,0-.07-.26-.98-.6-2.13-.34.3-.67.59-.67.59l.57-.91Z"/>
      <path class="cls-3" d="M151.89,97.05c-.26-.86-.51-1.69-.77-2.51-.19.17-.59.41-.59.41l.5-.68c-.33-1.04-.6-1.81-.65-1.81-.07,0-.53,1.41-1.01,2.98l.63,1s-.37-.33-.74-.65c-.27.89-.55,1.8-.75,2.49l.98,1.57s-.67-.8-1.1-1.16c-.11.37-.22.77-.22.8,0,.17,1.4,1.61,2,1.98v2.6h.41v-2.6c.6-.37,2-1.81,2-1.98,0-.07-.26-.98-.6-2.13-.34.3-.67.59-.67.59l.57-.91Z"/>
      <path class="cls-3" d="M197.88,97.05c-.26-.86-.51-1.69-.77-2.51-.19.17-.59.41-.59.41l.5-.68c-.33-1.04-.6-1.81-.65-1.81-.07,0-.53,1.41-1.01,2.98l.63,1s-.37-.33-.74-.65c-.27.89-.55,1.8-.75,2.49l.98,1.57s-.67-.8-1.1-1.16c-.11.37-.22.77-.22.8,0,.17,1.4,1.61,2,1.98v2.6h.41v-2.6c.6-.37,2-1.81,2-1.98,0-.07-.26-.98-.6-2.13-.34.3-.67.59-.67.59l.57-.91Z"/>
      <path class="cls-3" d="M210.37,96.14c-.26-.86-.51-1.69-.77-2.51-.19.17-.59.41-.59.41l.5-.68c-.33-1.04-.6-1.81-.65-1.81-.07,0-.53,1.41-1.01,2.98l.63,1s-.37-.33-.74-.65c-.27.89-.55,1.8-.75,2.49l.98,1.57s-.67-.8-1.1-1.16c-.11.37-.22.77-.22.8,0,.17,1.4,1.61,2,1.98v2.6h.41v-2.6c.6-.37,2-1.81,2-1.98,0-.07-.26-.98-.6-2.13-.34.3-.67.59-.67.59l.57-.91Z"/>
      <path class="cls-3" d="M239.81,94.07c-.26-.86-.51-1.69-.77-2.51-.19.17-.59.41-.59.41l.5-.68c-.33-1.04-.6-1.81-.65-1.81-.07,0-.53,1.41-1.01,2.98l.63,1s-.37-.33-.74-.65c-.27.89-.55,1.8-.75,2.49l.98,1.57s-.67-.8-1.1-1.16c-.11.37-.22.77-.22.8,0,.17,1.4,1.61,2,1.98v2.6h.41v-2.6c.6-.37,2-1.81,2-1.98,0-.07-.26-.98-.6-2.13-.34.3-.67.59-.67.59l.57-.91Z"/>
      <path class="cls-3" d="M246.12,94.76c-.26-.86-.51-1.69-.77-2.51-.19.17-.59.41-.59.41l.5-.68c-.33-1.04-.6-1.81-.65-1.81-.07,0-.53,1.41-1.01,2.98l.63,1s-.37-.33-.74-.65c-.27.89-.55,1.8-.75,2.49l.98,1.57s-.67-.8-1.1-1.16c-.11.37-.22.77-.22.8,0,.17,1.4,1.61,2,1.98v2.6h.41v-2.6c.6-.37,2-1.81,2-1.98,0-.07-.26-.98-.6-2.13-.34.3-.67.59-.67.59l.57-.91Z"/>
      <path class="cls-3" d="M297.08,92.96c-.26-.86-.51-1.69-.77-2.51-.19.17-.59.41-.59.41l.5-.68c-.33-1.04-.6-1.81-.65-1.81-.07,0-.53,1.41-1.01,2.98l.63,1s-.37-.33-.74-.65c-.27.89-.55,1.8-.75,2.49l.98,1.57s-.67-.8-1.1-1.16c-.11.37-.22.77-.22.8,0,.17,1.4,1.61,2,1.98v2.6h.41v-2.6c.6-.37,2-1.81,2-1.98,0-.07-.26-.98-.6-2.13-.34.3-.67.59-.67.59l.57-.91Z"/>
      <path class="cls-3" d="M321.05,94.76c-.26-.86-.51-1.69-.77-2.51-.19.17-.59.41-.59.41l.5-.68c-.33-1.04-.6-1.81-.65-1.81-.07,0-.53,1.41-1.01,2.98l.63,1s-.37-.33-.74-.65c-.27.89-.55,1.8-.75,2.49l.98,1.57s-.67-.8-1.1-1.16c-.11.37-.22.77-.22.8,0,.17,1.4,1.61,2,1.98v2.6h.41v-2.6c.6-.37,2-1.81,2-1.98,0-.07-.26-.98-.6-2.13-.34.3-.67.59-.67.59l.57-.91Z"/>
      <path class="cls-3" d="M327.31,94.76c-.26-.86-.51-1.69-.77-2.51-.19.17-.59.41-.59.41l.5-.68c-.33-1.04-.6-1.81-.65-1.81-.07,0-.53,1.41-1.01,2.98l.63,1s-.37-.33-.74-.65c-.27.89-.55,1.8-.75,2.49l.98,1.57s-.67-.8-1.1-1.16c-.11.37-.22.77-.22.8,0,.17,1.4,1.61,2,1.98v2.6h.41v-2.6c.6-.37,2-1.81,2-1.98,0-.07-.26-.98-.6-2.13-.34.3-.67.59-.67.59l.57-.91Z"/>
      <path class="cls-3" d="M138.89,96.14c-.26-.86-.51-1.69-.77-2.51-.19.17-.59.41-.59.41l.5-.68c-.33-1.04-.6-1.81-.65-1.81-.07,0-.53,1.41-1.01,2.98l.63,1s-.37-.33-.74-.65c-.27.89-.55,1.8-.75,2.49l.98,1.57s-.67-.8-1.1-1.16c-.11.37-.22.77-.22.8,0,.17,1.4,1.61,2,1.98v2.6h.41v-2.6c.6-.37,2-1.81,2-1.98,0-.07-.26-.98-.6-2.13-.34.3-.67.59-.67.59l.57-.91Z"/>
      <path class="cls-4" d="M84.65,102.06c-.34-1.14-.68-2.24-1.02-3.32-.25.22-.78.54-.78.54l.66-.9c-.44-1.37-.79-2.4-.85-2.4-.09,0-.7,1.87-1.34,3.94l.83,1.33s-.49-.44-.97-.86c-.36,1.18-.72,2.38-.99,3.3l1.3,2.08s-.89-1.05-1.46-1.53c-.14.49-.29,1.02-.29,1.06,0,.22,1.86,2.13,2.65,2.62v3.44h.54v-3.44c.79-.48,2.65-2.39,2.65-2.62,0-.09-.35-1.3-.8-2.82-.45.4-.88.78-.88.78l.75-1.21Z"/>
      <path class="cls-1" d="M172.79,112.44c-.5-1.67-1-3.29-1.5-4.87-.37.32-1.14.79-1.14.79l.97-1.32c-.64-2.01-1.16-3.52-1.25-3.52-.13,0-1.02,2.75-1.96,5.78l1.22,1.95s-.72-.64-1.43-1.26c-.53,1.73-1.06,3.49-1.46,4.84l1.91,3.06s-1.3-1.54-2.14-2.24c-.21.72-.42,1.49-.42,1.56,0,.32,2.73,3.13,3.89,3.84v5.05h.79v-5.05c1.16-.71,3.89-3.51,3.89-3.84,0-.13-.51-1.91-1.17-4.14-.67.58-1.29,1.14-1.29,1.14l1.1-1.77Z"/>
      <path class="cls-1" d="M255.93,109.51c-.5-1.67-1-3.29-1.5-4.87-.37.32-1.14.79-1.14.79l.97-1.32c-.64-2.01-1.16-3.52-1.25-3.52-.13,0-1.02,2.75-1.96,5.78l1.22,1.95s-.72-.64-1.43-1.26c-.53,1.73-1.06,3.49-1.46,4.84l1.91,3.06s-1.3-1.54-2.14-2.24c-.21.72-.42,1.49-.42,1.56,0,.32,2.73,3.13,3.89,3.84v5.05h.79v-5.05c1.16-.71,3.89-3.51,3.89-3.84,0-.13-.51-1.91-1.17-4.14-.67.58-1.29,1.14-1.29,1.14l1.1-1.77Z"/>
      <path class="cls-1" d="M267.59,110.51c-.5-1.67-1-3.29-1.5-4.87-.37.32-1.14.79-1.14.79l.97-1.32c-.64-2.01-1.16-3.52-1.25-3.52-.13,0-1.02,2.75-1.96,5.78l1.22,1.95s-.72-.64-1.43-1.26c-.53,1.73-1.06,3.49-1.46,4.84l1.91,3.06s-1.3-1.54-2.14-2.24c-.21.72-.42,1.49-.42,1.56,0,.32,2.73,3.13,3.89,3.84v5.05h.79v-5.05c1.16-.71,3.89-3.51,3.89-3.84,0-.13-.51-1.91-1.17-4.14-.67.58-1.29,1.14-1.29,1.14l1.1-1.77Z"/>
      <path class="cls-6" d="M225.45,110.6c-.89-2.97-1.77-5.85-2.66-8.66-.65.57-2.03,1.41-2.03,1.41l1.73-2.35c-1.14-3.58-2.06-6.27-2.23-6.27-.23,0-1.82,4.88-3.49,10.28l2.16,3.47s-1.27-1.14-2.54-2.24c-.95,3.08-1.89,6.21-2.59,8.61l3.39,5.44s-2.32-2.75-3.81-3.99c-.37,1.29-.74,2.66-.74,2.77,0,.58,4.85,5.56,6.91,6.83v8.98h1.41v-8.98c2.06-1.26,6.91-6.25,6.91-6.83,0-.24-.9-3.39-2.09-7.36-1.18,1.03-2.3,2.03-2.3,2.03l1.96-3.15Z"/>
      <path class="cls-6" d="M310.45,107.66c-.89-2.97-1.77-5.85-2.66-8.66-.65.57-2.03,1.41-2.03,1.41l1.73-2.35c-1.14-3.58-2.06-6.27-2.23-6.27-.23,0-1.82,4.88-3.49,10.28l2.16,3.47s-1.27-1.14-2.54-2.24c-.95,3.08-1.89,6.21-2.59,8.61l3.39,5.44s-2.32-2.75-3.81-3.99c-.37,1.29-.74,2.66-.74,2.77,0,.58,4.85,5.56,6.91,6.83v8.98h1.41v-8.98c2.06-1.26,6.91-6.25,6.91-6.83,0-.24-.9-3.39-2.09-7.36-1.18,1.03-2.3,2.03-2.3,2.03l1.96-3.15Z"/>
      <path class="cls-6" d="M290.95,107.66c-.89-2.97-1.77-5.85-2.66-8.66-.65.57-2.03,1.41-2.03,1.41l1.73-2.35c-1.14-3.58-2.06-6.27-2.23-6.27-.23,0-1.82,4.88-3.49,10.28l2.16,3.47s-1.27-1.14-2.54-2.24c-.95,3.08-1.89,6.21-2.59,8.61l3.39,5.44s-2.32-2.75-3.81-3.99c-.37,1.29-.74,2.66-.74,2.77,0,.58,4.85,5.56,6.91,6.83v8.98h1.41v-8.98c2.06-1.26,6.91-6.25,6.91-6.83,0-.24-.9-3.39-2.09-7.36-1.18,1.03-2.3,2.03-2.3,2.03l1.96-3.15Z"/>
      <path class="cls-6" d="M133.95,117.1c-.89-2.49-1.77-4.9-2.66-7.25-.65.48-2.03,1.18-2.03,1.18l1.73-1.97c-1.14-3-2.06-5.25-2.23-5.25-.23,0-1.82,4.09-3.49,8.61l2.16,2.9s-1.27-.95-2.54-1.87c-.95,2.58-1.89,5.2-2.59,7.22l3.39,4.55s-2.32-2.3-3.81-3.34c-.37,1.08-.74,2.23-.74,2.32,0,.48,4.85,4.66,6.91,5.72v7.53h1.41v-7.53c2.06-1.06,6.91-5.24,6.91-5.72,0-.2-.9-2.84-2.09-6.17-1.18.86-2.3,1.7-2.3,1.7l1.96-2.64Z"/>
    </g>
  </g>
</svg>